<svg width="26" height="25" viewBox="0 0 26 25" fill="none" xmlns="http://www.w3.org/2000/svg">
<path d="M23.4023 3.65298C22.1222 2.26464 20.3658 1.5 18.4562 1.5C17.0288 1.5 15.7216 1.95127 14.5708 2.84118C13.9901 3.29038 13.4639 3.83995 13 4.48139C12.5363 3.84013 12.0099 3.29037 11.429 2.84118C10.2784 1.95127 8.97116 1.5 7.54376 1.5C5.63414 1.5 3.87753 2.26464 2.59748 3.65298C1.33271 5.02511 0.635986 6.89963 0.635986 8.9315C0.635986 11.0228 1.41534 12.9371 3.08856 14.9561C4.58539 16.7622 6.73668 18.5956 9.22792 20.7186C10.0786 21.4436 11.0428 22.2654 12.044 23.1408C12.3085 23.3725 12.6479 23.5 13 23.5C13.3518 23.5 13.6914 23.3725 13.9555 23.1412C14.9568 22.2656 15.9216 21.4434 16.7726 20.718C19.2635 18.5954 21.4148 16.7622 22.9116 14.956C24.5848 12.9371 25.364 11.0228 25.364 8.93131C25.364 6.89964 24.6672 5.02511 23.4023 3.65299L23.4023 3.65298Z" fill="#5197AF"/>
</svg>
