<svg width="25" height="25" viewBox="0 0 25 25" fill="none" xmlns="http://www.w3.org/2000/svg">
<path d="M9.19995 9.73612C9.72995 10.2111 10.432 10.5001 11.2 10.5001H13.2C13.9381 10.5011 14.6505 10.229 15.2 9.73612H9.19995ZM9.19995 9.73612C8.65049 10.229 7.93809 10.5011 7.19995 10.5001L9.19995 9.73612ZM8.24995 4.50012V4.45012H8.19995H5.19995C4.92148 4.45012 4.65441 4.56075 4.45749 4.75766C4.26058 4.95457 4.14995 5.22164 4.14995 5.50012V7.50012C4.14995 7.7786 4.26058 8.04567 4.45749 8.24258C4.65441 8.4395 4.92148 8.55012 5.19995 8.55012H7.19995C7.47843 8.55012 7.7455 8.4395 7.94242 8.24258C8.13933 8.04567 8.24995 7.7786 8.24995 7.50012V4.50012ZM5.20995 10.4501H5.15995V10.5001V20.4651V20.5151H5.20995H7.19995H7.24995V20.4651V15.5001C7.24995 14.983 7.4554 14.487 7.8211 14.1213C8.18679 13.7556 8.68278 13.5501 9.19995 13.5501H11.2C11.7171 13.5501 12.2131 13.7556 12.5788 14.1213C12.9445 14.487 13.15 14.983 13.15 15.5001V20.4651V20.5151H13.2H19.213H19.263V20.4651V10.5001V10.4501H19.213H17.2C16.4447 10.4501 15.7545 10.166 15.2333 9.69889L15.1999 9.66897L15.1666 9.6989C14.6263 10.1835 13.9258 10.4511 13.2 10.4501H13.2H11.2C10.4447 10.4501 9.75449 10.166 9.23332 9.69889L9.19994 9.66897L9.16657 9.6989C8.6263 10.1835 7.92581 10.4511 7.20002 10.4501H7.19995H5.20995ZM3.20812 9.67725C2.91168 9.40647 2.67365 9.07778 2.50885 8.71131C2.33763 8.33054 2.24937 7.91769 2.24995 7.50019V7.50012V5.50012C2.24995 4.71773 2.56076 3.96739 3.11399 3.41416C3.66722 2.86092 4.41757 2.55012 5.19995 2.55012H19.2C19.9823 2.55012 20.7327 2.86092 21.2859 3.41416C21.8392 3.96739 22.15 4.71773 22.15 5.50012V7.50012C22.15 8.36745 21.7763 9.14815 21.1794 9.68804L21.163 9.70293V9.72512V20.4651C21.163 20.9823 20.9575 21.4783 20.5918 21.844C20.2261 22.2097 19.7301 22.4151 19.213 22.4151H11.573V22.4142L11.5637 22.416C11.4438 22.4387 11.322 22.4501 11.1999 22.4501H9.19995C9.07793 22.4501 8.95616 22.4387 8.83624 22.416L8.83641 22.4151H8.82695H5.21095C4.69378 22.4151 4.19779 22.2097 3.8321 21.844C3.4664 21.4783 3.26095 20.9823 3.26095 20.4651V9.74512V9.62442L3.20812 9.67725ZM11.25 15.5001V15.4501H11.2H9.19995H9.14995V15.5001V20.4651V20.5151H9.19995H11.2V20.4661H11.25V20.4651V20.4151V15.5001ZM14.25 4.50012V4.45012H14.2H10.2H10.15V4.50012V7.50012C10.15 7.7786 10.2606 8.04567 10.4575 8.24258C10.6544 8.4395 10.9215 8.55012 11.2 8.55012H13.2C13.4784 8.55012 13.7455 8.4395 13.9424 8.24258C14.1393 8.04567 14.25 7.7786 14.25 7.50012V4.50012ZM16.2 4.45012H16.15V4.50012V7.50012C16.15 7.7786 16.2606 8.04567 16.4575 8.24258C16.6544 8.4395 16.9215 8.55012 17.2 8.55012H19.2C19.4784 8.55012 19.7455 8.4395 19.9424 8.24258C20.1393 8.04567 20.25 7.7786 20.25 7.50012V5.50012C20.25 5.22164 20.1393 4.95457 19.9424 4.75766C19.7455 4.56075 19.4784 4.45012 19.2 4.45012H16.2ZM16.2 13.5501H17.2C17.4519 13.5501 17.6935 13.6502 17.8717 13.8284C18.0499 14.0065 18.15 14.2482 18.15 14.5001V17.5001C18.15 17.7521 18.0499 17.9937 17.8717 18.1719C17.6935 18.35 17.4519 18.4501 17.2 18.4501H16.2C15.948 18.4501 15.7064 18.35 15.5282 18.1719C15.35 17.9937 15.25 17.7521 15.25 17.5001V14.5001C15.25 14.2482 15.35 14.0065 15.5282 13.8284C15.7064 13.6502 15.948 13.5501 16.2 13.5501Z" fill="#5197AF" stroke="white" stroke-width="0.1"/>
</svg>
