<svg width="25" height="25" viewBox="0 0 25 25" fill="none" xmlns="http://www.w3.org/2000/svg">
<path d="M6.91943 2.96216C7.33365 2.96216 7.66943 2.62637 7.66943 2.21216C7.66943 1.79794 7.33365 1.46216 6.91943 1.46216C6.50522 1.46216 6.16943 1.79794 6.16943 2.21216C6.16943 2.62637 6.50522 2.96216 6.91943 2.96216Z" fill="#5197AF"/>
<path d="M10.929 9.97775C10.5585 9.97775 10.191 9.8615 9.87674 9.63274C9.60507 9.43686 9.39408 9.16841 9.26793 8.85815C9.14178 8.54789 9.10559 8.20838 9.16349 7.8785L9.29699 7.10149C9.30477 7.05438 9.30113 7.00609 9.28638 6.96068C9.27164 6.91526 9.24621 6.87405 9.21224 6.8405L8.64749 6.2915C8.40679 6.05835 8.23658 5.76215 8.15634 5.4368C8.07609 5.11145 8.08905 4.77008 8.19374 4.45175C8.29634 4.13283 8.48667 3.84924 8.74292 3.63344C8.99918 3.41764 9.31101 3.27834 9.64274 3.23149L10.4227 3.11824C10.4697 3.11129 10.5143 3.09306 10.5527 3.06511C10.5911 3.03716 10.6222 3.00032 10.6432 2.95774L10.9935 2.25049C11.1407 1.94959 11.3697 1.69622 11.6542 1.51941C11.9387 1.3426 12.2673 1.24949 12.6022 1.25074C13.2892 1.25074 13.905 1.63399 14.2095 2.25049L14.559 2.95774C14.5802 3.0002 14.6113 3.03695 14.6497 3.06488C14.688 3.09281 14.7326 3.11111 14.7795 3.11824L15.561 3.23149C16.2412 3.33049 16.7962 3.79774 17.0092 4.45175C17.2222 5.10575 17.0475 5.81075 16.5555 6.29075L15.9907 6.84124C15.9563 6.8745 15.9306 6.91569 15.9159 6.96119C15.9011 7.00669 15.8977 7.05513 15.906 7.10225L16.0395 7.8785C16.1557 8.55575 15.8827 9.2285 15.3262 9.63274C15.0559 9.83047 14.7353 9.94812 14.4012 9.97226C14.0671 9.9964 13.733 9.92605 13.437 9.76925L12.7395 9.40249C12.6972 9.38048 12.6503 9.36898 12.6026 9.36898C12.555 9.36898 12.508 9.38048 12.4657 9.40249L11.7667 9.76925C11.5093 9.90554 11.2225 9.97686 10.9312 9.97699L10.929 9.97775ZM12.6007 2.74999C12.5456 2.74852 12.4912 2.76321 12.4443 2.79226C12.3974 2.82131 12.36 2.86346 12.3367 2.91349L11.9872 3.62074C11.8585 3.88171 11.6682 4.10741 11.4328 4.27833C11.1973 4.44925 10.9237 4.56026 10.6357 4.60174L9.85649 4.71499C9.80176 4.72164 9.75017 4.74413 9.70807 4.77971C9.66596 4.81529 9.63517 4.8624 9.61949 4.91525C9.60099 4.96731 9.59824 5.02367 9.61158 5.07729C9.62492 5.13091 9.65375 5.17941 9.69449 5.21674L10.2585 5.76575C10.6815 6.179 10.8742 6.77224 10.7745 7.35349L10.641 8.13125C10.6301 8.18532 10.6354 8.24142 10.6562 8.29251C10.677 8.34361 10.7124 8.38743 10.758 8.41849C10.8013 8.45239 10.8538 8.47262 10.9087 8.47663C10.9636 8.48064 11.0184 8.46823 11.0662 8.441L11.766 8.07349C12.0234 7.9386 12.3097 7.86814 12.6004 7.86814C12.891 7.86814 13.1773 7.9386 13.4347 8.07349L14.133 8.441C14.2747 8.51525 14.388 8.45899 14.442 8.41849C14.4874 8.38729 14.5227 8.34345 14.5435 8.2924C14.5643 8.24135 14.5697 8.18532 14.559 8.13125L14.4255 7.35425C14.3764 7.06759 14.3977 6.77329 14.4875 6.49669C14.5774 6.22009 14.7332 5.9695 14.9415 5.76649L15.5062 5.216C15.5468 5.17872 15.5756 5.13035 15.5889 5.07688C15.6022 5.02342 15.5996 4.96721 15.5812 4.91525C15.5655 4.86255 15.5348 4.81556 15.4929 4.78001C15.4509 4.74445 15.3995 4.72187 15.345 4.71499L14.5642 4.60174C14.2766 4.55991 14.0033 4.44885 13.768 4.2781C13.5328 4.10735 13.3425 3.88203 13.2135 3.6215L12.864 2.91349C12.8408 2.86357 12.8035 2.82151 12.7568 2.79247C12.71 2.76343 12.6558 2.74866 12.6007 2.74999ZM12.6 23.768C11.8294 23.7676 11.0662 23.6183 10.3522 23.3285L6.22649 21.6627C5.67111 21.4401 5.19536 21.0558 4.86081 20.5597C4.52625 20.0637 4.3483 19.4786 4.34999 18.8802V16.3385H5.84999V18.8802C5.84999 19.4945 6.21824 20.0412 6.78824 20.2715L10.914 21.9372C11.9948 22.3764 13.2044 22.3764 14.2852 21.9372L18.4117 20.2707C18.6893 20.1592 18.927 19.967 19.0943 19.719C19.2615 19.471 19.3506 19.1786 19.35 18.8795V16.382H20.85V18.8795C20.8515 19.4777 20.6735 20.0626 20.339 20.5586C20.0044 21.0545 19.5287 21.4386 18.9735 21.6612L14.847 23.3277C14.1333 23.6176 13.3703 23.7676 12.6 23.768Z" fill="#5197AF"/>
<path d="M11.85 12.8982H13.35V23.4282H11.85V12.8982Z" fill="#5197AF"/>
<path d="M8.76219 18.8691C8.41419 18.8691 8.06844 18.7881 7.74819 18.6261L3.11469 16.2816C2.84366 16.1455 2.60316 15.9558 2.40782 15.7238C2.21248 15.4918 2.06639 15.2226 1.97844 14.9323C1.8887 14.6422 1.85905 14.3368 1.89129 14.0348C1.92353 13.7328 2.01698 13.4405 2.16594 13.1758L3.60144 10.6078C3.87176 10.1263 4.3095 9.7607 4.83156 9.58055C5.35361 9.40041 5.92364 9.41821 6.43344 9.63059L13.3162 12.5076L10.7782 17.6173C10.6472 17.8837 10.4644 18.1213 10.2404 18.3162C10.0165 18.511 9.75589 18.6592 9.47394 18.7521C9.24424 18.8289 9.00365 18.8682 8.76144 18.8683L8.76219 18.8691ZM5.56569 10.9566C5.43239 10.9567 5.30152 10.9923 5.18657 11.0598C5.07162 11.1273 4.97674 11.2242 4.91169 11.3406L3.47619 13.9078C3.42633 13.9959 3.39493 14.0933 3.38387 14.1939C3.37282 14.2945 3.38235 14.3963 3.41188 14.4931C3.44142 14.5899 3.49034 14.6797 3.55568 14.757C3.62102 14.8344 3.7014 14.8976 3.79194 14.9428L8.42544 17.2873C8.51373 17.3319 8.60997 17.3586 8.70861 17.3659C8.80726 17.3731 8.90637 17.3609 9.00025 17.3297C9.09412 17.2985 9.18092 17.2491 9.25565 17.1843C9.33037 17.1195 9.39156 17.0406 9.43569 16.9521L11.2627 13.2748L5.85594 11.0158C5.76431 10.9772 5.66587 10.9573 5.56644 10.9573L5.56569 10.9566Z" fill="#5197AF"/>
<path d="M16.4377 18.8691C16.1992 18.8691 15.9592 18.8308 15.726 18.7536C15.444 18.6605 15.1833 18.5121 14.9593 18.3171C14.7352 18.1222 14.5522 17.8845 14.421 17.6181L11.8837 12.5083L18.7665 9.63134C19.276 9.41748 19.8464 9.39892 20.3688 9.5792C20.8911 9.75949 21.3286 10.126 21.5977 10.6086L23.0332 13.1758C23.3347 13.7166 23.4022 14.3398 23.2215 14.9316C23.0407 15.5233 22.6372 16.0033 22.0845 16.2823L17.451 18.6268C17.1367 18.7861 16.7893 18.8694 16.437 18.8698L16.4377 18.8691ZM13.9387 13.2741L15.7642 16.9513C15.8082 17.0401 15.8693 17.1193 15.9441 17.1842C16.0189 17.2492 16.1058 17.2987 16.1998 17.3299C16.2938 17.3611 16.3931 17.3733 16.4918 17.3659C16.5906 17.3584 16.6869 17.3315 16.7752 17.2866L21.4087 14.9421C21.5925 14.8491 21.7275 14.6893 21.7875 14.4921C21.8475 14.2948 21.8257 14.0871 21.7245 13.9071L20.289 11.3398C20.1995 11.179 20.0539 11.0568 19.8799 10.9967C19.7059 10.9366 19.5159 10.9429 19.3462 11.0143L13.9395 13.2733L13.9387 13.2741ZM6.67423 8.52059C6.30748 8.52059 6.00598 8.25209 5.93698 7.89134C5.56423 5.94359 3.52873 4.76534 2.48173 4.28084C2.31337 4.20335 2.17958 4.06638 2.10607 3.89624C2.03256 3.7261 2.02452 3.5348 2.08348 3.35909C2.11653 3.2591 2.17029 3.16719 2.24125 3.08938C2.31221 3.01156 2.39878 2.94957 2.49531 2.90747C2.59184 2.86536 2.69616 2.84407 2.80147 2.845C2.90678 2.84593 3.01071 2.86904 3.10648 2.91284C4.41223 3.51209 6.95398 5.00084 7.42123 7.65434C7.50073 8.10659 7.13323 8.51984 6.67423 8.51984V8.52059ZM18.741 8.52059C18.2812 8.52059 17.9137 8.10734 17.994 7.65509C18.4612 5.00159 21.0022 3.51284 22.308 2.91359C22.4037 2.86965 22.5076 2.84641 22.6129 2.84538C22.7182 2.84434 22.8225 2.86554 22.9191 2.90759C23.0156 2.94964 23.1022 3.01159 23.1732 3.08939C23.2442 3.16719 23.298 3.25909 23.331 3.35909C23.3899 3.5348 23.3819 3.7261 23.3084 3.89624C23.2349 4.06638 23.1011 4.20335 22.9327 4.28084C21.8865 4.76609 19.851 5.94359 19.4782 7.89134C19.4092 8.25209 19.1077 8.52059 18.741 8.52059Z" fill="#5197AF"/>
<path d="M12.9104 12.8916L15.0922 17.2851C15.1802 17.4624 15.3025 17.6204 15.4519 17.7502C15.6013 17.88 15.7749 17.979 15.9627 18.0414C16.1505 18.1038 16.3488 18.1284 16.5462 18.1138C16.7436 18.0992 16.9361 18.0457 17.1127 17.9564L21.7462 15.6119C21.9267 15.5206 22.0868 15.3938 22.217 15.239C22.3473 15.0842 22.4448 14.9047 22.5039 14.7113C22.563 14.5179 22.5823 14.3145 22.5607 14.1134C22.5392 13.9123 22.4772 13.7176 22.3784 13.5411L20.9429 10.9739C20.7632 10.6524 20.4714 10.4084 20.1233 10.2882C19.7752 10.168 19.395 10.1801 19.0552 10.3221L12.9104 12.8916ZM13.5359 2.58211L13.8847 3.28936C14.0369 3.59761 14.3309 3.81061 14.6707 3.86011L15.4514 3.97336C16.3072 4.09786 16.6492 5.15011 16.0297 5.75386L15.4649 6.30436C15.3437 6.42245 15.253 6.5683 15.2007 6.72928C15.1485 6.89027 15.1362 7.06156 15.1649 7.22836L15.2984 8.00536C15.4447 8.85811 14.5499 9.50836 13.7842 9.10561L13.0859 8.73886C12.9362 8.66016 12.7695 8.61904 12.6003 8.61904C12.4311 8.61904 12.2645 8.66016 12.1147 8.73886L11.4164 9.10561C10.6507 9.50836 9.75594 8.85811 9.90219 8.00536L10.0357 7.22836C10.0642 7.06157 10.0518 6.89035 9.99953 6.7294C9.94727 6.56846 9.85673 6.4226 9.73569 6.30436L9.17094 5.75386C8.55144 5.15011 8.89344 4.09786 9.74919 3.97336L10.5299 3.86011C10.6973 3.83562 10.8563 3.77089 10.9932 3.67148C11.1301 3.57208 11.2408 3.44096 11.3159 3.28936L11.6647 2.58211C12.0472 1.80661 13.1534 1.80661 13.5367 2.58211H13.5359Z" fill="#5197AF"/>
</svg>
