<svg width="21" height="25" viewBox="0 0 21 25" fill="none" xmlns="http://www.w3.org/2000/svg">
<path d="M10.6488 12.0609C12.237 12.0609 13.6123 11.4912 14.736 10.3673C15.8598 9.24361 16.4294 7.86867 16.4294 6.28027C16.4294 4.69234 15.8598 3.31727 14.7359 2.19317C13.6119 1.06962 12.2368 0.5 10.6488 0.5C9.06034 0.5 7.68536 1.06962 6.56168 2.19335C5.438 3.31708 4.86814 4.6922 4.86814 6.28027C4.86814 7.86867 5.43795 9.24379 6.56187 10.3675C7.68579 11.4911 9.06091 12.0609 10.6488 12.0609ZM20.7633 18.9548C20.7309 18.4871 20.6653 17.9769 20.5688 17.4383C20.4714 16.8955 20.346 16.3825 20.1958 15.9136C20.0408 15.4289 19.8298 14.9503 19.5691 14.4916C19.2985 14.0155 18.9806 13.6009 18.6239 13.2598C18.2509 12.903 17.7942 12.6161 17.2662 12.4067C16.7399 12.1986 16.1567 12.0931 15.5329 12.0931C15.2879 12.0931 15.051 12.1936 14.5934 12.4916C14.2681 12.7034 13.9419 12.9137 13.6147 13.1225C13.3003 13.3228 12.8744 13.5105 12.3483 13.6804C11.8351 13.8465 11.314 13.9308 10.7996 13.9308C10.2853 13.9308 9.76436 13.8465 9.25056 13.6804C8.72509 13.5107 8.29919 13.323 7.98513 13.1227C7.62091 12.89 7.29138 12.6776 7.00554 12.4913C6.54851 12.1934 6.31137 12.0929 6.0664 12.0929C5.44236 12.0929 4.85938 12.1985 4.3333 12.407C3.80558 12.6159 3.34874 12.9028 2.97538 13.26C2.6189 13.6013 2.30085 14.0157 2.03057 14.4916C1.77004 14.9502 1.55911 15.4287 1.40381 15.9138C1.25381 16.3827 1.12842 16.8955 1.03102 17.4383C0.9345 17.9762 0.868969 18.4866 0.836532 18.9553C0.804264 19.427 0.78827 19.8997 0.788579 20.3725C0.788579 21.6254 1.18683 22.6395 1.97217 23.3875C2.74781 24.1257 3.77408 24.5001 5.02212 24.5001H16.5783C17.8263 24.5001 18.8522 24.1258 19.628 23.3876C20.4136 22.6401 20.8118 21.6257 20.8118 20.3723C20.8116 19.8888 20.7954 19.4118 20.7633 18.9548Z" fill="#5197AF"/>
</svg>
