<svg width="33" height="35" viewBox="0 0 33 35" fill="none" xmlns="http://www.w3.org/2000/svg">
<path d="M10.5202 16.2067C10.5734 16.4257 10.6694 16.632 10.8027 16.8137C10.9359 16.9955 11.1039 17.149 11.2968 17.2656C11.4897 17.3821 11.7037 17.4593 11.9266 17.4928C12.1494 17.5263 12.3767 17.5153 12.5953 17.4605C12.814 17.4058 13.0196 17.3083 13.2003 17.1737C13.3811 17.0391 13.5335 16.8701 13.6486 16.6764C13.7638 16.4827 13.8395 16.2681 13.8714 16.045C13.9032 15.8219 13.8906 15.5947 13.8343 15.3764L10.8328 3.36686C10.6228 2.52326 10.1367 1.77415 9.45172 1.23879C8.76678 0.703428 7.92243 0.412598 7.05309 0.412598C6.18376 0.412598 5.3394 0.703428 4.65446 1.23879C3.96953 1.77415 3.48337 2.52326 3.27341 3.36686L0.270157 15.3764C0.213832 15.5947 0.20124 15.8219 0.233108 16.045C0.264976 16.2681 0.340673 16.4827 0.455839 16.6764C0.571005 16.8701 0.723364 17.0391 0.904138 17.1737C1.08491 17.3083 1.29053 17.4058 1.50914 17.4605C1.72775 17.5153 1.95504 17.5263 2.17791 17.4928C2.40078 17.4593 2.61483 17.3821 2.80772 17.2656C3.00062 17.149 3.16854 16.9955 3.30183 16.8137C3.43511 16.632 3.53112 16.4257 3.58432 16.2067L4.54099 12.3749H9.56349L10.5202 16.2067ZM5.39687 8.95823L6.58757 4.19711C6.62349 4.10249 6.68733 4.02103 6.77063 3.96354C6.85393 3.90606 6.95274 3.87528 7.05395 3.87528C7.15516 3.87528 7.25397 3.90606 7.33727 3.96354C7.42057 4.02103 7.48441 4.10249 7.52032 4.19711L8.71103 8.95823H5.39687ZM19.0123 8.95823H20.7206C21.1737 8.95823 21.6082 9.13822 21.9286 9.45859C22.249 9.77897 22.4289 10.2135 22.4289 10.6666V12.3749C22.4289 12.828 22.6089 13.2625 22.9293 13.5829C23.2497 13.9032 23.6842 14.0832 24.1373 14.0832C24.5904 14.0832 25.0249 13.9032 25.3453 13.5829C25.6656 13.2625 25.8456 12.828 25.8456 12.3749V10.6666C25.8443 9.30775 25.3039 8.00497 24.343 7.04414C23.3822 6.08331 22.0794 5.54292 20.7206 5.54157H19.0123C18.5592 5.54157 18.1247 5.72155 17.8043 6.04193C17.4839 6.3623 17.3039 6.79682 17.3039 7.2499C17.3039 7.70298 17.4839 8.1375 17.8043 8.45788C18.1247 8.77825 18.5592 8.95823 19.0123 8.95823ZM12.1789 24.3332H10.4706C10.0175 24.3332 9.58302 24.1533 9.26264 23.8329C8.94227 23.5125 8.76228 23.078 8.76228 22.6249V20.9166C8.76228 20.4635 8.5823 20.029 8.26192 19.7086C7.94155 19.3882 7.50703 19.2082 7.05395 19.2082C6.60087 19.2082 6.16635 19.3882 5.84597 19.7086C5.5256 20.029 5.34562 20.4635 5.34562 20.9166V22.6249C5.34697 23.9837 5.88736 25.2865 6.84819 26.2473C7.80902 27.2082 9.1118 27.7485 10.4706 27.7499H12.1789C12.632 27.7499 13.0665 27.5699 13.3869 27.2495C13.7073 26.9292 13.8873 26.4946 13.8873 26.0416C13.8873 25.5885 13.7073 25.154 13.3869 24.8336C13.0665 24.5132 12.632 24.3332 12.1789 24.3332Z" fill="#5C90A4"/>
<path d="M27.802 24.284C27.9487 24.284 28.022 24.3573 28.022 24.504V25.78C28.022 25.9267 27.9487 26 27.802 26H20.938C20.4833 26 20.1607 26.1247 19.97 26.374C19.794 26.6233 19.706 26.9313 19.706 27.298C19.706 27.7673 19.8307 28.112 20.08 28.332C20.344 28.552 20.85 28.662 21.598 28.662H23.71C23.8567 28.662 23.93 28.7353 23.93 28.882V30.158C23.93 30.3047 23.8567 30.378 23.71 30.378H21.444C20.3147 30.378 19.4273 30.136 18.782 29.652C18.1367 29.168 17.814 28.398 17.814 27.342C17.814 26.8433 17.88 26.4107 18.012 26.044C18.1587 25.692 18.342 25.3987 18.562 25.164C18.7967 24.9293 19.0533 24.746 19.332 24.614C19.6253 24.482 19.9187 24.394 20.212 24.35C19.86 23.998 19.5593 23.5653 19.31 23.052C19.0753 22.5387 18.958 21.908 18.958 21.16C18.958 20.7053 19.024 20.214 19.156 19.686C19.288 19.1433 19.53 18.6447 19.882 18.19C20.234 17.7353 20.7107 17.3613 21.312 17.068C21.928 16.76 22.7127 16.606 23.666 16.606C24.5313 16.606 25.2793 16.7673 25.91 17.09C26.5407 17.398 27.0467 17.8307 27.428 18.388C27.5013 18.5053 27.4793 18.608 27.362 18.696L26.394 19.488C26.2767 19.576 26.174 19.5687 26.086 19.466C25.426 18.7033 24.5973 18.322 23.6 18.322C22.6907 18.322 22.016 18.5933 21.576 19.136C21.136 19.664 20.916 20.3313 20.916 21.138C20.916 21.6807 21.004 22.1427 21.18 22.524C21.356 22.9053 21.554 23.2207 21.774 23.47C22.0087 23.7193 22.2433 23.91 22.478 24.042C22.7127 24.1593 22.896 24.24 23.028 24.284H27.802Z" fill="#5C90A4"/>
</svg>
