<svg width="24" height="24" viewBox="0 0 24 24" fill="none" xmlns="http://www.w3.org/2000/svg">
<g clip-path="url(#clip0_553_8333)">
<path d="M21.2493 3.98854C21.2493 3.1138 20.5402 2.40472 19.6654 2.40472H1.58386C0.709219 2.40472 0 3.11385 0 3.98854V22.07C0 22.5227 0.190266 22.9307 0.494812 23.2194H19.6654V23.6539H22.4398C23.1214 23.6539 23.7025 23.2232 23.9258 22.6191C24.1109 22.1299 24.1763 23.0651 21.2493 3.98854Z" fill="#7C7C7C"/>
<path d="M22.2165 22.0701V10.2922L21.2493 3.98854C21.2493 3.1138 20.5402 2.40472 19.6654 2.40472H2.55114C1.6765 2.40472 0.967285 3.1138 0.967285 3.98854V22.07C0.967285 22.5227 1.15755 22.9307 1.4621 23.2194H19.6655V23.6539H20.6327C21.5073 23.6539 22.2165 22.9448 22.2165 22.0701Z" fill="#F2F3F2"/>
<path d="M19.6654 2.40472H1.58386C0.709219 2.40472 0 3.11385 0 3.98854V22.07C0 22.9448 0.709219 23.6539 1.58386 23.6539H19.6654C20.5401 23.6539 21.2493 22.9448 21.2493 22.07V3.98854C21.2493 3.11385 20.5401 2.40472 19.6654 2.40472Z" fill="#F2F3F2"/>
<path d="M0.967172 22.0701V3.98854C0.967172 3.1138 1.67639 2.40472 2.55103 2.40472H1.58386C0.709219 2.40472 0 3.11385 0 3.98854V22.07C0 22.9448 0.709219 23.6539 1.58386 23.6539H2.55103C1.67644 23.6539 0.967172 22.9448 0.967172 22.0701Z" fill="#F2F3F2"/>
<path d="M19.6654 2.40472H1.58386C0.709219 2.40472 0 3.11385 0 3.98854V8.0571H21.2493V3.98854C21.2493 3.11385 20.5401 2.40472 19.6654 2.40472Z" fill="#5197AF"/>
<path d="M0.967172 3.98854C0.967172 3.1138 1.67639 2.40472 2.55103 2.40472H1.58386C0.709219 2.40472 0 3.11385 0 3.98854V8.0571H0.967172V3.98854Z" fill="#5197AF"/>
<path d="M16.9611 3.82074V4.15046C16.9611 4.47099 16.7013 4.48899 16.3807 4.48899H16.1873C15.8668 4.48899 15.607 4.47099 15.607 4.15046V3.82079C15.3001 4.03491 15.0992 4.39032 15.0992 4.79288C15.0992 5.44726 15.6297 5.97769 16.284 5.97769C17.4445 5.97765 17.9054 4.4798 16.9611 3.82074ZM10.9645 3.82074V4.15046C10.9645 4.47099 10.7047 4.44061 10.3842 4.44061H10.1907C9.87022 4.44061 9.6104 4.47099 9.6104 4.15046V3.82079C9.30355 4.03491 9.1026 4.39032 9.1026 4.79288C9.1026 5.44726 9.63308 5.97769 10.2874 5.97769C10.9418 5.97769 11.4722 5.44726 11.4722 4.79288C11.4722 4.39032 11.2713 4.03486 10.9645 3.82074ZM4.9679 3.82074V4.15046C4.9679 4.52415 4.61619 4.48899 4.19413 4.48899C3.87365 4.48899 3.61382 4.47099 3.61382 4.15046V3.82079C2.66849 4.48051 3.13185 5.97769 4.29083 5.97769C4.94521 5.97769 5.47565 5.44726 5.47565 4.79288C5.47565 4.39032 5.27469 4.03486 4.9679 3.82074Z" fill="#09090A"/>
<path d="M16.1147 4.79289C16.1147 4.77044 16.1156 4.74822 16.1168 4.7261C15.8296 4.69127 15.6069 4.4471 15.6069 4.15047V3.8208C15.3001 4.03493 15.0991 4.39033 15.0991 4.79289C15.0991 5.44727 15.6296 5.97771 16.2839 5.97771C16.4657 5.97771 16.6378 5.93669 16.7917 5.86352C16.3915 5.67335 16.1147 5.26549 16.1147 4.79289ZM10.1181 4.79289C10.1181 4.77044 10.119 4.74822 10.1202 4.7261C9.83299 4.69127 9.61033 4.4471 9.61033 4.15047V3.8208C9.30349 4.03493 9.10254 4.39033 9.10254 4.79289C9.10254 5.44727 9.63302 5.97771 10.2873 5.97771C10.4691 5.97771 10.6412 5.93669 10.7951 5.86352C10.3949 5.67335 10.1181 5.26549 10.1181 4.79289ZM4.12361 4.7261C3.83641 4.69127 3.61375 4.4471 3.61375 4.15047V3.8208C3.30691 4.03493 3.10596 4.39033 3.10596 4.79289C3.10596 5.66552 4.01739 6.23472 4.79852 5.86352C4.37411 5.66182 4.09614 5.22096 4.12361 4.7261Z" fill="#09090A"/>
<path d="M0 8.05695H21.2494V9.41102H0V8.05695Z" fill="#5197AF"/>
<path d="M0 8.05695H0.967172V9.41102H0V8.05695Z" fill="#5197AF"/>
<path d="M4.38753 0.346191C4.70807 0.346191 4.96785 0.606019 4.96785 0.926504V4.15047C4.96785 4.471 4.70807 4.73078 4.38753 4.73078H4.19408C3.8736 4.73078 3.61377 4.471 3.61377 4.15047V0.926504C3.61377 0.606019 3.8736 0.346191 4.19408 0.346191H4.38753ZM10.3841 0.346191C10.7046 0.346191 10.9644 0.606019 10.9644 0.926504V4.15047C10.9644 4.471 10.7046 4.73078 10.3841 4.73078H10.1907C9.87018 4.73078 9.61035 4.471 9.61035 4.15047V0.926504C9.61035 0.606019 9.87018 0.346191 10.1907 0.346191H10.3841ZM16.3807 0.346191C16.7012 0.346191 16.961 0.606019 16.961 0.926504V4.15047C16.961 4.471 16.7012 4.73078 16.3807 4.73078H16.1872C15.8668 4.73078 15.6069 4.471 15.6069 4.15047V0.926504C15.6069 0.606019 15.8668 0.346191 16.1872 0.346191H16.3807Z" fill="#09090A"/>
<path d="M4.38753 0.346191C4.70807 0.346191 4.96785 0.606019 4.96785 0.926504V4.15047C4.96785 4.471 4.70807 4.73078 4.38753 4.73078H4.19408C3.8736 4.73078 3.61377 4.471 3.61377 4.15047V0.926504C3.61377 0.606019 3.8736 0.346191 4.19408 0.346191H4.38753ZM10.3841 0.346191C10.7046 0.346191 10.9644 0.606019 10.9644 0.926504V4.15047C10.9644 4.471 10.7046 4.73078 10.3841 4.73078H10.1907C9.87018 4.73078 9.61035 4.471 9.61035 4.15047V0.926504C9.61035 0.606019 9.87018 0.346191 10.1907 0.346191H10.3841ZM16.3807 0.346191C16.7012 0.346191 16.961 0.606019 16.961 0.926504V4.15047C16.961 4.471 16.7012 4.73078 16.3807 4.73078H16.1872C15.8668 4.73078 15.6069 4.471 15.6069 4.15047V0.926504C15.6069 0.606019 15.8668 0.346191 16.1872 0.346191H16.3807Z" fill="#09090A"/>
<path d="M4.29079 4.15047V0.926504C4.29079 0.69241 4.42972 0.491223 4.62932 0.399441C4.55352 0.364422 4.47103 0.346254 4.38753 0.346191H4.19408C3.8736 0.346191 3.61377 0.606019 3.61377 0.926504V4.15047C3.61377 4.471 3.8736 4.73078 4.19408 4.73078H4.38753C4.47397 4.73078 4.55568 4.71138 4.62932 4.67754C4.42972 4.5858 4.29079 4.38457 4.29079 4.15047ZM10.2874 4.15047V0.926504C10.2874 0.69241 10.4263 0.491223 10.6259 0.399441C10.5501 0.364422 10.4676 0.346254 10.3841 0.346191H10.1907C9.87018 0.346191 9.61035 0.606019 9.61035 0.926504V4.15047C9.61035 4.471 9.87018 4.73078 10.1907 4.73078H10.3841C10.4706 4.73078 10.5523 4.71138 10.6259 4.67754C10.4263 4.5858 10.2874 4.38457 10.2874 4.15047ZM16.2839 4.15047V0.926504C16.2839 0.69241 16.4229 0.491223 16.6225 0.399441C16.5467 0.364422 16.4642 0.346254 16.3807 0.346191H16.1872C15.8668 0.346191 15.6069 0.606019 15.6069 0.926504V4.15047C15.6069 4.471 15.8668 4.73078 16.1872 4.73078H16.3807C16.4671 4.73078 16.5488 4.71138 16.6225 4.67754C16.4229 4.5858 16.2839 4.38457 16.2839 4.15047Z" fill="#09090A"/>
<path d="M7.90336 11.6334H6.70926C6.61306 11.6334 6.5208 11.6716 6.45278 11.7397C6.38476 11.8077 6.34654 11.8999 6.34654 11.9961C6.34654 12.0923 6.38476 12.1846 6.45278 12.2526C6.5208 12.3206 6.61306 12.3589 6.70926 12.3589H7.90336C7.99955 12.3589 8.09181 12.3206 8.15984 12.2526C8.22786 12.1846 8.26607 12.0923 8.26607 11.9961C8.26607 11.8999 8.22786 11.8077 8.15984 11.7397C8.09181 11.6716 7.99955 11.6334 7.90336 11.6334ZM11.2231 11.6334H10.0289C9.93266 11.6334 9.8404 11.6716 9.77238 11.7397C9.70435 11.8077 9.66614 11.8999 9.66614 11.9961C9.66614 12.0923 9.70435 12.1846 9.77238 12.2526C9.8404 12.3206 9.93266 12.3589 10.0289 12.3589H11.2231C11.3183 12.3573 11.4091 12.3184 11.4758 12.2506C11.5426 12.1827 11.58 12.0913 11.58 11.9961C11.58 11.9009 11.5426 11.8096 11.4758 11.7417C11.4091 11.6738 11.3183 11.635 11.2231 11.6334ZM14.5428 11.6334H13.3485C13.2523 11.6334 13.16 11.6716 13.092 11.7397C13.024 11.8077 12.9858 11.8999 12.9858 11.9961C12.9858 12.0923 13.024 12.1846 13.092 12.2526C13.16 12.3206 13.2523 12.3589 13.3485 12.3589H14.5428C14.639 12.3589 14.7312 12.3206 14.7993 12.2526C14.8673 12.1846 14.9055 12.0923 14.9055 11.9961C14.9055 11.8999 14.8673 11.8077 14.7993 11.7397C14.7312 11.6716 14.639 11.6334 14.5428 11.6334ZM17.8624 11.6334H16.6681C16.5719 11.6334 16.4797 11.6716 16.4117 11.7397C16.3436 11.8077 16.3054 11.8999 16.3054 11.9961C16.3054 12.0923 16.3436 12.1846 16.4117 12.2526C16.4797 12.3206 16.5719 12.3589 16.6681 12.3589H17.8624C17.9576 12.3573 18.0483 12.3184 18.1151 12.2506C18.1819 12.1827 18.2193 12.0913 18.2193 11.9961C18.2193 11.9009 18.1819 11.8096 18.1151 11.7417C18.0483 11.6738 17.9576 11.635 17.8624 11.6334ZM4.58381 14.5556H3.38957C3.29338 14.5556 3.20112 14.5938 3.13309 14.6618C3.06507 14.7299 3.02686 14.8221 3.02686 14.9183C3.02686 15.0145 3.06507 15.1068 3.13309 15.1748C3.20112 15.2428 3.29338 15.281 3.38957 15.281H4.58381C4.68001 15.281 4.77227 15.2428 4.84029 15.1748C4.90831 15.1068 4.94653 15.0145 4.94653 14.9183C4.94653 14.8221 4.90831 14.7299 4.84029 14.6618C4.77227 14.5938 4.68001 14.5556 4.58381 14.5556ZM7.90336 14.5556H6.70926C6.61306 14.5556 6.5208 14.5938 6.45278 14.6618C6.38476 14.7299 6.34654 14.8221 6.34654 14.9183C6.34654 15.0145 6.38476 15.1068 6.45278 15.1748C6.5208 15.2428 6.61306 15.281 6.70926 15.281H7.90336C7.95099 15.2811 7.99816 15.2717 8.04217 15.2535C8.08618 15.2352 8.12617 15.2085 8.15985 15.1748C8.19353 15.1411 8.22025 15.1012 8.23848 15.0571C8.2567 15.0131 8.26608 14.966 8.26607 14.9183C8.26608 14.8707 8.2567 14.8235 8.23848 14.7795C8.22025 14.7355 8.19353 14.6955 8.15985 14.6618C8.12617 14.6282 8.08618 14.6014 8.04217 14.5832C7.99816 14.565 7.95099 14.5556 7.90336 14.5556ZM11.2231 14.5556H10.0289C9.93266 14.5556 9.8404 14.5938 9.77238 14.6618C9.70435 14.7299 9.66614 14.8221 9.66614 14.9183C9.66614 15.0145 9.70435 15.1068 9.77238 15.1748C9.8404 15.2428 9.93266 15.281 10.0289 15.281H11.2231C11.3193 15.281 11.4115 15.2428 11.4796 15.1748C11.5476 15.1068 11.5858 15.0145 11.5858 14.9183C11.5858 14.8221 11.5476 14.7299 11.4796 14.6618C11.4115 14.5938 11.3193 14.5556 11.2231 14.5556ZM14.5428 14.5556H13.3485C13.2523 14.5556 13.16 14.5938 13.092 14.6618C13.024 14.7299 12.9858 14.8221 12.9858 14.9183C12.9858 15.0145 13.024 15.1068 13.092 15.1748C13.16 15.2428 13.2523 15.281 13.3485 15.281H14.5428C14.639 15.281 14.7312 15.2428 14.7993 15.1748C14.8673 15.1068 14.9055 15.0145 14.9055 14.9183C14.9055 14.8221 14.8673 14.7299 14.7993 14.6618C14.7312 14.5938 14.639 14.5556 14.5428 14.5556ZM17.8624 14.5556H16.6681C16.5719 14.5556 16.4797 14.5938 16.4117 14.6618C16.3436 14.7299 16.3054 14.8221 16.3054 14.9183C16.3054 15.0145 16.3436 15.1068 16.4117 15.1748C16.4797 15.2428 16.5719 15.281 16.6681 15.281H17.8624C17.9586 15.281 18.0508 15.2428 18.1189 15.1748C18.1869 15.1068 18.2251 15.0145 18.2251 14.9183C18.2251 14.8221 18.1869 14.7299 18.1189 14.6618C18.0508 14.5938 17.9586 14.5556 17.8624 14.5556ZM4.58381 17.4778H3.38957C3.29338 17.4778 3.20112 17.516 3.13309 17.584C3.06507 17.6521 3.02686 17.7443 3.02686 17.8405C3.02686 17.9367 3.06507 18.029 3.13309 18.097C3.20112 18.165 3.29338 18.2032 3.38957 18.2032H4.58381C4.78415 18.2032 4.94653 18.0409 4.94653 17.8405C4.94653 17.6402 4.78415 17.4778 4.58381 17.4778ZM7.90336 17.4778H6.70926C6.61306 17.4778 6.5208 17.516 6.45278 17.584C6.38476 17.6521 6.34654 17.7443 6.34654 17.8405C6.34654 17.9367 6.38476 18.029 6.45278 18.097C6.5208 18.165 6.61306 18.2032 6.70926 18.2032H7.90336C8.1037 18.2032 8.26607 18.0409 8.26607 17.8405C8.26607 17.6402 8.1037 17.4778 7.90336 17.4778ZM11.2231 17.4778H10.0289C9.93266 17.4778 9.8404 17.516 9.77238 17.584C9.70435 17.6521 9.66614 17.7443 9.66614 17.8405C9.66614 17.9367 9.70435 18.029 9.77238 18.097C9.8404 18.165 9.93266 18.2032 10.0289 18.2032H11.2231C11.4234 18.2032 11.5858 18.0409 11.5858 17.8405C11.5858 17.6402 11.4234 17.4778 11.2231 17.4778ZM14.5428 17.4778H13.3485C13.2523 17.4778 13.16 17.516 13.092 17.584C13.024 17.6521 12.9858 17.7443 12.9858 17.8405C12.9858 17.9367 13.024 18.029 13.092 18.097C13.16 18.165 13.2523 18.2032 13.3485 18.2032H14.5428C14.639 18.2032 14.7312 18.165 14.7993 18.097C14.8673 18.029 14.9055 17.9367 14.9055 17.8405C14.9055 17.7443 14.8673 17.6521 14.7993 17.584C14.7312 17.516 14.639 17.4778 14.5428 17.4778ZM17.8624 17.4778H16.6681C16.5719 17.4778 16.4797 17.516 16.4117 17.584C16.3436 17.6521 16.3054 17.7443 16.3054 17.8405C16.3054 17.9367 16.3436 18.029 16.4117 18.097C16.4797 18.165 16.5719 18.2032 16.6681 18.2032H17.8624C18.0627 18.2032 18.2251 18.0409 18.2251 17.8405C18.2251 17.6402 18.0627 17.4778 17.8624 17.4778ZM4.58381 20.4H3.38957C3.29338 20.4 3.20112 20.4382 3.13309 20.5063C3.06507 20.5743 3.02686 20.6666 3.02686 20.7628C3.02686 20.8589 3.06507 20.9512 3.13309 21.0192C3.20112 21.0873 3.29338 21.1255 3.38957 21.1255H4.58381C4.68001 21.1255 4.77227 21.0873 4.84029 21.0192C4.90831 20.9512 4.94653 20.8589 4.94653 20.7628C4.94653 20.6666 4.90831 20.5743 4.84029 20.5063C4.77227 20.4382 4.68001 20.4 4.58381 20.4ZM7.90336 20.4H6.70926C6.61306 20.4 6.5208 20.4382 6.45278 20.5063C6.38476 20.5743 6.34654 20.6666 6.34654 20.7628C6.34654 20.8589 6.38476 20.9512 6.45278 21.0192C6.5208 21.0873 6.61306 21.1255 6.70926 21.1255H7.90336C7.95099 21.1255 7.99816 21.1161 8.04217 21.0979C8.08618 21.0796 8.12617 21.0529 8.15985 21.0192C8.19353 20.9856 8.22025 20.9456 8.23848 20.9016C8.2567 20.8576 8.26608 20.8104 8.26607 20.7628C8.26608 20.7151 8.2567 20.6679 8.23848 20.6239C8.22025 20.5799 8.19353 20.5399 8.15985 20.5063C8.12617 20.4726 8.08618 20.4459 8.04217 20.4276C7.99816 20.4094 7.95099 20.4 7.90336 20.4ZM11.2231 20.4H10.0289C9.93266 20.4 9.8404 20.4382 9.77238 20.5063C9.70435 20.5743 9.66614 20.6666 9.66614 20.7628C9.66614 20.8589 9.70435 20.9512 9.77238 21.0192C9.8404 21.0873 9.93266 21.1255 10.0289 21.1255H11.2231C11.3193 21.1255 11.4115 21.0873 11.4796 21.0192C11.5476 20.9512 11.5858 20.8589 11.5858 20.7628C11.5858 20.6666 11.5476 20.5743 11.4796 20.5063C11.4115 20.4382 11.3193 20.4 11.2231 20.4ZM14.5428 20.4H13.3485C13.2523 20.4 13.16 20.4382 13.092 20.5063C13.024 20.5743 12.9858 20.6666 12.9858 20.7628C12.9858 20.8589 13.024 20.9512 13.092 21.0192C13.16 21.0873 13.2523 21.1255 13.3485 21.1255H14.5428C14.639 21.1255 14.7312 21.0873 14.7993 21.0192C14.8673 20.9512 14.9055 20.8589 14.9055 20.7628C14.9055 20.6666 14.8673 20.5743 14.7993 20.5063C14.7312 20.4382 14.639 20.4 14.5428 20.4Z" fill="#09090A"/>
</g>
<defs>
<clipPath id="clip0_553_8333">
<rect width="24" height="24" fill="white"/>
</clipPath>
</defs>
</svg>
