<svg width="20" height="20" viewBox="0 0 20 20" fill="none" xmlns="http://www.w3.org/2000/svg">
<g clip-path="url(#clip0_660_6862)">
<path d="M17.5001 3.33333H14.9167C14.7233 2.39284 14.2116 1.54779 13.4678 0.940598C12.724 0.333408 11.7936 0.0012121 10.8334 0L9.16675 0C8.20658 0.0012121 7.27618 0.333408 6.53237 0.940598C5.78856 1.54779 5.27683 2.39284 5.08341 3.33333H2.50008C2.27907 3.33333 2.06711 3.42113 1.91083 3.57741C1.75455 3.73369 1.66675 3.94565 1.66675 4.16667C1.66675 4.38768 1.75455 4.59964 1.91083 4.75592C2.06711 4.9122 2.27907 5 2.50008 5H3.33341V15.8333C3.33474 16.938 3.77415 17.997 4.55526 18.7782C5.33638 19.5593 6.39542 19.9987 7.50008 20H12.5001C13.6047 19.9987 14.6638 19.5593 15.4449 18.7782C16.226 17.997 16.6654 16.938 16.6667 15.8333V5H17.5001C17.7211 5 17.9331 4.9122 18.0893 4.75592C18.2456 4.59964 18.3334 4.38768 18.3334 4.16667C18.3334 3.94565 18.2456 3.73369 18.0893 3.57741C17.9331 3.42113 17.7211 3.33333 17.5001 3.33333ZM9.16675 1.66667H10.8334C11.3503 1.6673 11.8544 1.82781 12.2764 2.1262C12.6985 2.42459 13.0179 2.84624 13.1909 3.33333H6.80925C6.98223 2.84624 7.30167 2.42459 7.72374 2.1262C8.14581 1.82781 8.64985 1.6673 9.16675 1.66667ZM15.0001 15.8333C15.0001 16.4964 14.7367 17.1323 14.2678 17.6011C13.799 18.0699 13.1631 18.3333 12.5001 18.3333H7.50008C6.83704 18.3333 6.20116 18.0699 5.73231 17.6011C5.26347 17.1323 5.00008 16.4964 5.00008 15.8333V5H15.0001V15.8333Z" fill="#F10000"/>
<path d="M8.33333 15C8.55435 15 8.76631 14.9122 8.92259 14.7559C9.07887 14.5996 9.16667 14.3877 9.16667 14.1667V9.16667C9.16667 8.94565 9.07887 8.73369 8.92259 8.57741C8.76631 8.42113 8.55435 8.33333 8.33333 8.33333C8.11232 8.33333 7.90036 8.42113 7.74408 8.57741C7.5878 8.73369 7.5 8.94565 7.5 9.16667V14.1667C7.5 14.3877 7.5878 14.5996 7.74408 14.7559C7.90036 14.9122 8.11232 15 8.33333 15ZM11.6667 15C11.8877 15 12.0996 14.9122 12.2559 14.7559C12.4122 14.5996 12.5 14.3877 12.5 14.1667V9.16667C12.5 8.94565 12.4122 8.73369 12.2559 8.57741C12.0996 8.42113 11.8877 8.33333 11.6667 8.33333C11.4457 8.33333 11.2337 8.42113 11.0774 8.57741C10.9211 8.73369 10.8333 8.94565 10.8333 9.16667V14.1667C10.8333 14.3877 10.9211 14.5996 11.0774 14.7559C11.2337 14.9122 11.4457 15 11.6667 15Z" fill="#F10000"/>
</g>
<defs>
<clipPath id="clip0_660_6862">
<rect width="20" height="20" fill="white"/>
</clipPath>
</defs>
</svg>
