<svg width="20" height="20" viewBox="0 0 20 20" fill="none" xmlns="http://www.w3.org/2000/svg">
<path d="M13.5417 16.6667H14.375V13.3333H13.5417V16.6667ZM15.625 16.6667H16.4583V13.3333H15.625V16.6667ZM5 7.5H15V5.83333H5V7.5ZM15 19.1667C13.8472 19.1667 12.8644 18.7603 12.0517 17.9475C11.2389 17.1347 10.8328 16.1522 10.8333 15C10.8333 13.8472 11.2397 12.8644 12.0525 12.0517C12.8653 11.2389 13.8478 10.8328 15 10.8333C16.1528 10.8333 17.1356 11.2397 17.9483 12.0525C18.7611 12.8653 19.1672 13.8478 19.1667 15C19.1667 16.1528 18.7603 17.1356 17.9475 17.9483C17.1347 18.7611 16.1522 19.1672 15 19.1667ZM2.5 18.3333V4.16667C2.5 3.70833 2.66333 3.31583 2.99 2.98917C3.31667 2.6625 3.70889 2.49945 4.16667 2.5H15.8333C16.2917 2.5 16.6842 2.66333 17.0108 2.99C17.3375 3.31667 17.5006 3.70889 17.5 4.16667V9.72917C17.1111 9.53472 16.7047 9.39222 16.2808 9.30167C15.8569 9.21111 15.43 9.16611 15 9.16667H5V10.8333H10.9167C10.6806 11.0694 10.4619 11.3264 10.2608 11.6042C10.0597 11.8819 9.8825 12.1806 9.72917 12.5H5V14.1667H9.22917C9.20139 14.3056 9.18389 14.4411 9.17667 14.5733C9.16944 14.7056 9.16611 14.8478 9.16667 15C9.16667 15.5833 9.24667 16.1425 9.40667 16.6775C9.56667 17.2125 9.80611 17.7228 10.125 18.2083L10 18.3333L8.75 17.0833L7.5 18.3333L6.25 17.0833L5 18.3333L3.75 17.0833L2.5 18.3333Z" fill="#5197AF"/>
</svg>
