<svg width="20" height="20" viewBox="0 0 20 20" fill="none" xmlns="http://www.w3.org/2000/svg">
<g id="Frame" clip-path="url(#clip0_519_8859)">
<g id="Group">
<g id="Group_2">
<path id="Vector" d="M17.5688 9.04838L16.1515 10.0277L14.8195 8.79321L14.1895 7.19321L15.6067 6.21045L16.9157 7.4139L17.5688 9.04838Z" fill="#F2F3F2"/>
<path id="Vector_2" d="M13.1034 13.9656V18.4483C13.1029 18.6311 13.0301 18.8062 12.9009 18.9354C12.7716 19.0646 12.5965 19.1374 12.4138 19.138H0.689655C0.506915 19.1374 0.331816 19.0646 0.202598 18.9354C0.0733809 18.8062 0.000545768 18.6311 0 18.4483L0 5.6897H13.1034V13.9656Z" fill="#F2F3F2"/>
<path id="Vector_3" d="M8.27585 17.4138H2.06895C1.97749 17.4138 1.88979 17.3774 1.82512 17.3128C1.76045 17.2481 1.72412 17.1604 1.72412 17.0689C1.72412 16.9775 1.76045 16.8898 1.82512 16.8251C1.88979 16.7605 1.97749 16.7241 2.06895 16.7241H8.27585C8.3673 16.7241 8.45501 16.7605 8.51968 16.8251C8.58434 16.8898 8.62067 16.9775 8.62067 17.0689C8.62067 17.1604 8.58434 17.2481 8.51968 17.3128C8.45501 17.3774 8.3673 17.4138 8.27585 17.4138Z" fill="#7C7C7C"/>
<path id="Vector_4" d="M19.5552 7.67586L17.569 9.04828L15.6069 6.21035L17.5931 4.83793C17.8187 4.68226 18.0967 4.62242 18.3663 4.67155C18.6359 4.72069 18.875 4.87478 19.0311 5.1L19.8173 6.23448C19.9731 6.46054 20.0331 6.73915 19.9839 7.0093C19.9348 7.27945 19.7807 7.51913 19.5552 7.67586Z" fill="#09090A"/>
<path id="Vector_5" d="M7.18977 15.2585L5.54839 15.6551C5.48097 15.671 5.41033 15.6662 5.34567 15.6413C5.28101 15.6165 5.22534 15.5728 5.18589 15.5158C5.14645 15.4589 5.12506 15.3914 5.12452 15.3221C5.12398 15.2529 5.14432 15.1851 5.18287 15.1275L6.13459 13.731L7.18977 15.2585Z" fill="#09090A"/>
<path id="Vector_6" d="M16.1517 10.0276C8.88416 15.0545 9.37623 14.7197 9.3414 14.731L7.38623 11.9035C7.42658 11.8631 7.0414 12.1338 14.1897 7.19312L16.1517 10.0276Z" fill="#09090A"/>
<path id="Vector_7" d="M9.34117 14.7309C9.27462 14.7654 9.09979 14.7961 7.18945 15.2585L6.13428 13.7309C7.41428 11.8492 7.34669 11.9426 7.386 11.9033L9.34117 14.7309Z" fill="#F2F3F2"/>
<g id="Group_3">
<path id="Vector_8" d="M9.94826 8.79317H2.06895C1.97749 8.79317 1.88979 8.75684 1.82512 8.69217C1.76045 8.62751 1.72412 8.5398 1.72412 8.44834C1.72412 8.35689 1.76045 8.26918 1.82512 8.20451C1.88979 8.13985 1.97749 8.10352 2.06895 8.10352H9.94826C10.0397 8.10352 10.1274 8.13985 10.1921 8.20451C10.2568 8.26918 10.2931 8.35689 10.2931 8.44834C10.2931 8.5398 10.2568 8.62751 10.1921 8.69217C10.1274 8.75684 10.0397 8.79317 9.94826 8.79317ZM7.45516 10.5173H2.06895C1.97749 10.5173 1.88979 10.481 1.82512 10.4163C1.76045 10.3516 1.72412 10.2639 1.72412 10.1725C1.72412 10.081 1.76045 9.99332 1.82512 9.92865C1.88979 9.86398 1.97749 9.82765 2.06895 9.82765H7.45516C7.54661 9.82765 7.63432 9.86398 7.69899 9.92865C7.76365 9.99332 7.79998 10.081 7.79998 10.1725C7.79998 10.2639 7.76365 10.3516 7.69899 10.4163C7.63432 10.481 7.54661 10.5173 7.45516 10.5173ZM5.71378 12.2414H2.06895C1.97749 12.2414 1.88979 12.2051 1.82512 12.1404C1.76045 12.0758 1.72412 11.9881 1.72412 11.8966C1.72412 11.8052 1.76045 11.7175 1.82512 11.6528C1.88979 11.5881 1.97749 11.5518 2.06895 11.5518H5.71378C5.80523 11.5518 5.89294 11.5881 5.95761 11.6528C6.02227 11.7175 6.0586 11.8052 6.0586 11.8966C6.0586 11.9881 6.02227 12.0758 5.95761 12.1404C5.89294 12.2051 5.80523 12.2414 5.71378 12.2414ZM4.53791 13.9656H2.06895C1.97749 13.9656 1.88979 13.9293 1.82512 13.8646C1.76045 13.7999 1.72412 13.7122 1.72412 13.6208C1.72412 13.5293 1.76045 13.4416 1.82512 13.3769C1.88979 13.3123 1.97749 13.2759 2.06895 13.2759H4.53791C4.62937 13.2759 4.71708 13.3123 4.78174 13.3769C4.84641 13.4416 4.88274 13.5293 4.88274 13.6208C4.88274 13.7122 4.84641 13.7999 4.78174 13.8646C4.71708 13.9293 4.62937 13.9656 4.53791 13.9656ZM3.73791 15.6897H2.06895C1.97749 15.6897 1.88979 15.6534 1.82512 15.5887C1.76045 15.5241 1.72412 15.4363 1.72412 15.3449C1.72412 15.2534 1.76045 15.1657 1.82512 15.1011C1.88979 15.0364 1.97749 15.0001 2.06895 15.0001H3.73791C3.82937 15.0001 3.91708 15.0364 3.98174 15.1011C4.04641 15.1657 4.08274 15.2534 4.08274 15.3449C4.08274 15.4363 4.04641 15.5241 3.98174 15.5887C3.91708 15.6534 3.82937 15.6897 3.73791 15.6897Z" fill="#7C7C7C"/>
</g>
<path id="Vector_9" d="M11.7241 2.93091C12.09 2.93091 12.4408 3.07623 12.6995 3.3349C12.9581 3.59357 13.1034 3.9444 13.1034 4.31022V6.37918H0V4.31022C0 3.9444 0.14532 3.59357 0.403991 3.3349C0.662662 3.07623 1.01349 2.93091 1.37931 2.93091H11.7241Z" fill="#09090A"/>
<path id="Vector_10" d="M11.3793 17.7586H10.3448C10.2534 17.7586 10.1657 17.7222 10.101 17.6576C10.0363 17.5929 10 17.5052 10 17.4137C10 17.3223 10.0363 17.2346 10.101 17.1699C10.1657 17.1052 10.2534 17.0689 10.3448 17.0689H11.0345V16.3793C11.0345 16.2878 11.0708 16.2001 11.1355 16.1354C11.2001 16.0708 11.2879 16.0344 11.3793 16.0344C11.4708 16.0344 11.5585 16.0708 11.6231 16.1354C11.6878 16.2001 11.7241 16.2878 11.7241 16.3793V17.4137C11.7241 17.5052 11.6878 17.5929 11.6231 17.6576C11.5585 17.7222 11.4708 17.7586 11.3793 17.7586Z" fill="#7C7C7C"/>
<path id="Vector_11" d="M11.7242 2.93103C11.7242 4.08965 11.1173 4.99999 10.3449 4.99999C10.2535 4.99999 10.1657 4.96366 10.1011 4.89899C10.0364 4.83433 10.0001 4.74662 10.0001 4.65516C10.0001 4.56371 10.0364 4.476 10.1011 4.41133C10.1657 4.34667 10.2535 4.31034 10.3449 4.31034C10.6691 4.31034 11.0346 3.72068 11.0346 2.93103C11.0346 2.14137 10.6691 1.55172 10.3449 1.55172C10.0208 1.55172 9.65526 2.14137 9.65526 2.93103H8.9656C8.9656 1.77241 9.5725 0.862061 10.3449 0.862061C11.1173 0.862061 11.7242 1.77241 11.7242 2.93103ZM7.93112 2.93103C7.93112 4.08965 7.32422 4.99999 6.55181 4.99999C6.46035 4.99999 6.37265 4.96366 6.30798 4.89899C6.24331 4.83433 6.20698 4.74662 6.20698 4.65516C6.20698 4.56371 6.24331 4.476 6.30798 4.41133C6.37265 4.34667 6.46035 4.31034 6.55181 4.31034C6.87595 4.31034 7.24146 3.72068 7.24146 2.93103C7.24146 2.14137 6.87595 1.55172 6.55181 1.55172C6.22767 1.55172 5.86215 2.14137 5.86215 2.93103H5.1725C5.1725 1.77241 5.77939 0.862061 6.55181 0.862061C7.32422 0.862061 7.93112 1.77241 7.93112 2.93103ZM4.13802 2.93103C4.13802 4.08965 3.53112 4.99999 2.7587 4.99999C2.66725 4.99999 2.57954 4.96366 2.51488 4.89899C2.45021 4.83433 2.41388 4.74662 2.41388 4.65516C2.41388 4.56371 2.45021 4.476 2.51488 4.41133C2.57954 4.34667 2.66725 4.31034 2.7587 4.31034C3.08284 4.31034 3.44836 3.72068 3.44836 2.93103C3.44836 2.14137 3.08284 1.55172 2.7587 1.55172C2.43457 1.55172 2.06905 2.14137 2.06905 2.93103H1.37939C1.37939 1.77241 1.98629 0.862061 2.7587 0.862061C3.53112 0.862061 4.13802 1.77241 4.13802 2.93103Z" fill="#7C7C7C"/>
</g>
</g>
</g>
<defs>
<clipPath id="clip0_519_8859">
<rect width="20" height="20" fill="white"/>
</clipPath>
</defs>
</svg>
