<svg width="26" height="25" viewBox="0 0 26 25" fill="none" xmlns="http://www.w3.org/2000/svg">
<path d="M22.6754 4.45738C21.4848 3.19524 19.8511 2.50012 18.0749 2.50012C16.7473 2.50012 15.5314 2.91037 14.461 3.71937C13.9209 4.12774 13.4315 4.62734 13 5.21047C12.5687 4.62751 12.0791 4.12773 11.5388 3.71937C10.4686 2.91037 9.2527 2.50012 7.92505 2.50012C6.14888 2.50012 4.51502 3.19524 3.32442 4.45738C2.14803 5.70476 1.5 7.40887 1.5 9.25601C1.5 11.1572 2.22489 12.8975 3.78119 14.733C5.17341 16.3748 7.17437 18.0415 9.49152 19.9715C10.2827 20.6306 11.1796 21.3777 12.1108 22.1735C12.3569 22.3841 12.6725 22.5001 13 22.5001C13.3272 22.5001 13.6431 22.3841 13.8888 22.1739C14.82 21.3779 15.7174 20.6305 16.509 19.971C18.8258 18.0414 20.8267 16.3748 22.2189 14.7328C23.7752 12.8975 24.5 11.1572 24.5 9.25585C24.5 7.40887 23.8519 5.70476 22.6754 4.45739L22.6754 4.45738Z" stroke="#7C7C7C" stroke-width="2"/>
</svg>
