<svg width="25" height="25" viewBox="0 0 25 25" fill="none" xmlns="http://www.w3.org/2000/svg">
<path d="M9.0999 9.4596C9.6829 9.9821 10.4551 10.3 11.2999 10.3H13.4999C14.3118 10.3011 15.0955 10.0018 15.6999 9.4596H9.0999ZM9.0999 9.4596C8.4955 10.0018 7.71185 10.3011 6.8999 10.3L9.0999 9.4596ZM8.0499 3.7V3.65H7.9999H4.6999C4.39491 3.65 4.1024 3.77116 3.88673 3.98683C3.67107 4.20249 3.54991 4.495 3.54991 4.8V7C3.54991 7.305 3.67107 7.59751 3.88673 7.81317C4.1024 8.02884 4.39491 8.15 4.6999 8.15H6.8999C7.2049 8.15 7.49741 8.02884 7.71308 7.81317C7.92874 7.59751 8.0499 7.305 8.0499 7V3.7ZM4.7109 10.25H4.6609V10.3V21.2615V21.3115H4.7109H6.8999H6.9499V21.2615V15.8C6.9499 15.2298 7.17642 14.6829 7.57962 14.2797C7.98283 13.8765 8.52969 13.65 9.0999 13.65H11.2999C11.8701 13.65 12.417 13.8765 12.8202 14.2797C13.2234 14.6829 13.4499 15.2298 13.4499 15.8V21.2615V21.3115H13.4999H20.1142H20.1642V21.2615V10.3V10.25H20.1142H17.8999C17.0679 10.25 16.3074 9.93695 15.7333 9.42237L15.6999 9.39245L15.6665 9.42238C15.0713 9.9563 14.2996 10.2511 13.5 10.25H13.4999H11.2999C10.4679 10.25 9.70744 9.93695 9.13327 9.42237L9.09989 9.39245L9.06652 9.42238C8.4713 9.9563 7.69957 10.2511 6.89997 10.25H6.8999H4.7109ZM2.50905 9.40175C2.18082 9.10282 1.91735 8.73955 1.73513 8.33435C1.54649 7.91486 1.44926 7.46003 1.44991 7.00007V7V4.8C1.44991 3.93805 1.79232 3.1114 2.40181 2.5019C3.0113 1.89241 3.83795 1.55 4.6999 1.55H20.0999C20.9619 1.55 21.7885 1.89241 22.398 2.5019C23.0075 3.1114 23.3499 3.93805 23.3499 4.8V7C23.3499 7.95553 22.9383 8.81563 22.2807 9.41042L22.2642 9.42531V9.4475V21.2615C22.2642 21.8317 22.0377 22.3786 21.6345 22.7818C21.2313 23.185 20.6844 23.4115 20.1142 23.4115H11.7102V23.4106L11.7009 23.4124C11.5687 23.4374 11.4344 23.45 11.2999 23.45H9.0999C8.96536 23.45 8.83111 23.4374 8.69889 23.4124L8.69906 23.4115H8.6896H4.712C4.14179 23.4115 3.59493 23.185 3.19173 22.7818C2.78852 22.3786 2.56201 21.8317 2.56201 21.2615V9.4695V9.34879L2.50905 9.40175ZM11.3499 15.8V15.75H11.2999H9.0999H9.0499V15.8V21.2615V21.3115H9.0999H11.2999V21.2626H11.3499V21.2615V21.2115V15.8ZM14.6499 3.7V3.65H14.5999H10.1999H10.1499V3.7V7C10.1499 7.305 10.2711 7.59751 10.4867 7.81317C10.7024 8.02884 10.9949 8.15 11.2999 8.15H13.4999C13.8049 8.15 14.0974 8.02884 14.3131 7.81317C14.5287 7.59751 14.6499 7.305 14.6499 7V3.7ZM16.7999 3.65H16.7499V3.7V7C16.7499 7.305 16.8711 7.59751 17.0867 7.81317C17.3024 8.02884 17.5949 8.15 17.8999 8.15H20.0999C20.4049 8.15 20.6974 8.02884 20.9131 7.81317C21.1287 7.59751 21.2499 7.305 21.2499 7V4.8C21.2499 4.495 21.1287 4.20249 20.9131 3.98683C20.6974 3.77116 20.4049 3.65 20.0999 3.65H16.7999ZM16.7999 13.65H17.8999C18.1784 13.65 18.4455 13.7606 18.6424 13.9575C18.8393 14.1545 18.9499 14.4215 18.9499 14.7V18C18.9499 18.2785 18.8393 18.5455 18.6424 18.7425C18.4455 18.9394 18.1784 19.05 17.8999 19.05H16.7999C16.5214 19.05 16.2544 18.9394 16.0574 18.7425C15.8605 18.5455 15.7499 18.2785 15.7499 18V14.7C15.7499 14.4215 15.8605 14.1545 16.0574 13.9575C16.2544 13.7606 16.5214 13.65 16.7999 13.65Z" fill="#7C7C7C" stroke="white" stroke-width="0.1"/>
</svg>
