<svg width="17" height="16" viewBox="0 0 17 16" fill="none" xmlns="http://www.w3.org/2000/svg">
<g id="Frame" clip-path="url(#clip0_651_5464)">
<g id="Group">
<path id="Vector" d="M3.3432 10.5103H3.05876C1.81431 10.5103 0.783203 9.51478 0.783203 8.26678V2.777C0.783203 1.53256 1.81431 0.533447 3.06231 0.533447H8.59831C9.84631 0.533447 10.8774 1.53256 10.8774 2.777V2.97611C12.4739 2.97611 13.4232 3.82589 13.4232 5.48634C14.6854 5.48634 15.7165 6.46767 15.7165 7.72989V13.2019C15.7165 14.4499 14.7032 15.4632 13.4552 15.4632H7.86587C6.63565 15.4632 5.62231 14.4499 5.62231 13.2019V12.9352C4.32454 12.8179 3.3432 12.0854 3.3432 10.7059V10.5103ZM12.5734 5.48989V5.22323C12.5734 4.441 11.9263 3.82589 11.1583 3.82589H5.60454C4.82231 3.82589 4.1752 4.441 4.1752 5.22323V10.7094C4.1752 11.609 4.79031 12.0072 5.62231 12.089V7.73345C5.62231 6.50323 6.63565 5.48989 7.86587 5.48989H12.5734ZM13.4552 6.32189H7.86587C7.10143 6.32189 6.46854 6.95478 6.46854 7.737V13.209C6.46854 13.9912 7.10143 14.6241 7.86587 14.6241H13.4516C14.2339 14.6241 14.8668 13.9912 14.8668 13.209V7.73345C14.8668 6.95123 14.2374 6.32189 13.4552 6.32189ZM10.0276 2.97967V2.78056C10.0276 1.99834 9.38054 1.38323 8.59831 1.38323H3.06231C2.28009 1.38323 1.63298 1.99834 1.63298 2.78056V8.26678C1.63298 9.049 2.28009 9.66411 3.06231 9.66411H3.34676V5.22323C3.34676 3.97522 4.37787 2.97967 5.60809 2.97967H10.0276Z" fill="#5197AF"/>
</g>
</g>
<defs>
<clipPath id="clip0_651_5464">
<rect width="16" height="16" fill="white" transform="translate(0.25)"/>
</clipPath>
</defs>
</svg>
