<svg width="24" height="24" viewBox="0 0 24 24" fill="none" xmlns="http://www.w3.org/2000/svg">
<path d="M19.7948 2.28759L18.558 4.39284C19.7195 4.86859 20.7132 5.67922 21.4125 6.72153C22.1118 7.76383 22.4852 8.99067 22.485 10.2458V13.9208C22.485 18.6773 18.6315 22.5308 13.875 22.5308H10.11C5.3535 22.5308 1.5 18.6773 1.5 13.9208V10.2458C1.5 6.75684 4.3335 3.92334 7.8225 3.92334H16.1625C16.275 3.92334 16.3875 3.92634 16.4985 3.93234L18.075 1.24884C18.1435 1.13351 18.2345 1.03314 18.3425 0.95371C18.4506 0.874275 18.5736 0.817399 18.7041 0.786468C18.8346 0.755538 18.97 0.751184 19.1022 0.773668C19.2344 0.796152 19.3608 0.845012 19.4738 0.917341C19.9373 1.21209 20.0678 1.82334 19.7948 2.28759ZM7.79025 5.90259C6.64042 5.90577 5.53874 6.36461 4.7266 7.17858C3.91446 7.99255 3.45809 9.09526 3.4575 10.2451C3.45931 11.3851 3.90859 12.4789 4.70865 13.291C5.50872 14.1031 6.59563 14.5687 7.7355 14.5876C7.84875 14.2726 7.995 13.9606 8.1735 13.6561C8.9595 12.3181 10.1835 11.4623 11.3738 11.2838C11.6446 11.2476 11.9038 11.1507 12.132 11.0003C12.3601 10.8499 12.5514 10.65 12.6915 10.4153L15.3413 5.90259H7.79025ZM14.304 13.0103C14.484 13.4843 14.5613 14.0228 14.5313 14.5876H16.29C17.4411 14.5856 18.5445 14.1275 19.3584 13.3135C20.1724 12.4996 20.6305 11.3962 20.6325 10.2451C20.6325 8.29434 19.3358 6.63759 17.5598 6.09234L14.424 11.4323C14.2868 11.6695 14.2047 11.9345 14.1839 12.2076C14.1632 12.4808 14.2042 12.7552 14.304 13.0103ZM13.875 21.0301C14.8088 21.0304 15.7335 20.8467 16.5962 20.4895C17.459 20.1323 18.2429 19.6086 18.9032 18.9483C19.5635 18.288 20.0872 17.5041 20.4444 16.6413C20.8016 15.7786 20.9853 14.8539 20.985 13.9201V13.0373C20.4954 13.8828 19.7922 14.5848 18.9458 15.0728C18.0994 15.5607 17.1395 15.8176 16.1625 15.8176H7.8225C6.84556 15.8177 5.88577 15.5609 5.03936 15.0731C4.19294 14.5852 3.48965 13.8835 3 13.0381V13.9208C2.9997 14.8546 3.18341 15.7793 3.54061 16.6421C3.89782 17.5048 4.42153 18.2887 5.08181 18.949C5.7421 19.6093 6.52601 20.133 7.38877 20.4902C8.25153 20.8474 9.17622 21.0311 10.11 21.0308L13.875 21.0301ZM13.6538 14.5876C13.6538 13.7033 13.2968 12.9248 12.6165 12.5251C11.4503 11.8403 9.7725 12.5296 8.871 14.0656C8.77215 14.2334 8.68494 14.4078 8.61 14.5876H13.6538Z" fill="#09090A"/>
</svg>
