<svg width="25" height="25" viewBox="0 0 25 25" fill="none" xmlns="http://www.w3.org/2000/svg">
<path d="M6.91943 2.96234C7.33365 2.96234 7.66943 2.62655 7.66943 2.21234C7.66943 1.79813 7.33365 1.46234 6.91943 1.46234C6.50522 1.46234 6.16943 1.79813 6.16943 2.21234C6.16943 2.62655 6.50522 2.96234 6.91943 2.96234Z" fill="#7C7C7C"/>
<path d="M10.929 9.97787C10.5585 9.97787 10.191 9.86162 9.87674 9.63287C9.60507 9.43698 9.39408 9.16854 9.26793 8.85828C9.14178 8.54802 9.10559 8.2085 9.16349 7.87862L9.29699 7.10162C9.30477 7.05451 9.30113 7.00622 9.28638 6.9608C9.27164 6.91539 9.24621 6.87417 9.21224 6.84062L8.64749 6.29162C8.40679 6.05847 8.23658 5.76227 8.15634 5.43692C8.07609 5.11157 8.08905 4.7702 8.19374 4.45187C8.29634 4.13295 8.48667 3.84936 8.74292 3.63356C8.99918 3.41776 9.31101 3.27846 9.64274 3.23162L10.4227 3.11837C10.4697 3.11141 10.5143 3.09318 10.5527 3.06523C10.5911 3.03728 10.6222 3.00044 10.6432 2.95787L10.9935 2.25062C11.1407 1.94971 11.3697 1.69635 11.6542 1.51953C11.9387 1.34272 12.2673 1.24961 12.6022 1.25087C13.2892 1.25087 13.905 1.63412 14.2095 2.25062L14.559 2.95787C14.5802 3.00033 14.6113 3.03707 14.6497 3.065C14.688 3.09293 14.7326 3.11123 14.7795 3.11837L15.561 3.23162C16.2412 3.33062 16.7962 3.79787 17.0092 4.45187C17.2222 5.10587 17.0475 5.81087 16.5555 6.29087L15.9907 6.84137C15.9563 6.87462 15.9306 6.91581 15.9159 6.96131C15.9011 7.00682 15.8977 7.05525 15.906 7.10237L16.0395 7.87862C16.1557 8.55587 15.8827 9.22862 15.3262 9.63287C15.0559 9.83059 14.7353 9.94825 14.4012 9.97238C14.0671 9.99652 13.733 9.92617 13.437 9.76937L12.7395 9.40262C12.6972 9.3806 12.6503 9.3691 12.6026 9.3691C12.555 9.3691 12.508 9.3806 12.4657 9.40262L11.7667 9.76937C11.5093 9.90566 11.2225 9.97698 10.9312 9.97712L10.929 9.97787ZM12.6007 2.75012C12.5456 2.74864 12.4912 2.76333 12.4443 2.79238C12.3974 2.82143 12.36 2.86358 12.3367 2.91362L11.9872 3.62087C11.8585 3.88183 11.6682 4.10753 11.4328 4.27845C11.1973 4.44937 10.9237 4.56038 10.6357 4.60187L9.85649 4.71512C9.80176 4.72176 9.75017 4.74425 9.70807 4.77983C9.66596 4.81541 9.63517 4.86252 9.61949 4.91537C9.60099 4.96743 9.59824 5.02379 9.61158 5.07741C9.62492 5.13103 9.65375 5.17954 9.69449 5.21687L10.2585 5.76587C10.6815 6.17912 10.8742 6.77237 10.7745 7.35362L10.641 8.13137C10.6301 8.18545 10.6354 8.24154 10.6562 8.29263C10.677 8.34373 10.7124 8.38755 10.758 8.41862C10.8013 8.45251 10.8538 8.47275 10.9087 8.47675C10.9636 8.48076 11.0184 8.46836 11.0662 8.44112L11.766 8.07362C12.0234 7.93873 12.3097 7.86826 12.6004 7.86826C12.891 7.86826 13.1773 7.93873 13.4347 8.07362L14.133 8.44112C14.2747 8.51537 14.388 8.45912 14.442 8.41862C14.4874 8.38741 14.5227 8.34357 14.5435 8.29252C14.5643 8.24147 14.5697 8.18544 14.559 8.13137L14.4255 7.35437C14.3764 7.06771 14.3977 6.77341 14.4875 6.49681C14.5774 6.22022 14.7332 5.96962 14.9415 5.76662L15.5062 5.21612C15.5468 5.17885 15.5756 5.13047 15.5889 5.07701C15.6022 5.02354 15.5996 4.96733 15.5812 4.91537C15.5655 4.86267 15.5348 4.81569 15.4929 4.78013C15.4509 4.74458 15.3995 4.72199 15.345 4.71512L14.5642 4.60187C14.2766 4.56003 14.0033 4.44897 13.768 4.27822C13.5328 4.10748 13.3425 3.88215 13.2135 3.62162L12.864 2.91362C12.8408 2.8637 12.8035 2.82163 12.7568 2.79259C12.71 2.76355 12.6558 2.74879 12.6007 2.75012ZM12.6 23.7681C11.8294 23.7677 11.0662 23.6184 10.3522 23.3286L6.22649 21.6629C5.67111 21.4402 5.19536 21.056 4.86081 20.5599C4.52625 20.0638 4.3483 19.4787 4.34999 18.8804V16.3386H5.84999V18.8804C5.84999 19.4946 6.21824 20.0414 6.78824 20.2716L10.914 21.9374C11.9948 22.3765 13.2044 22.3765 14.2852 21.9374L18.4117 20.2709C18.6893 20.1593 18.927 19.9671 19.0943 19.7192C19.2615 19.4712 19.3506 19.1787 19.35 18.8796V16.3821H20.85V18.8796C20.8515 19.4778 20.6735 20.0627 20.339 20.5587C20.0044 21.0546 19.5287 21.4387 18.9735 21.6614L14.847 23.3279C14.1333 23.6177 13.3703 23.7677 12.6 23.7681Z" fill="#7C7C7C"/>
<path d="M11.85 12.8984H13.35V23.4284H11.85V12.8984Z" fill="#7C7C7C"/>
<path d="M8.76219 18.8691C8.41419 18.8691 8.06844 18.7881 7.74819 18.6261L3.11469 16.2816C2.84366 16.1455 2.60316 15.9558 2.40782 15.7238C2.21248 15.4918 2.06639 15.2226 1.97844 14.9323C1.8887 14.6422 1.85905 14.3368 1.89129 14.0348C1.92353 13.7328 2.01698 13.4405 2.16594 13.1758L3.60144 10.6078C3.87176 10.1263 4.3095 9.7607 4.83156 9.58055C5.35361 9.40041 5.92364 9.41821 6.43344 9.63059L13.3162 12.5076L10.7782 17.6173C10.6472 17.8837 10.4644 18.1213 10.2404 18.3162C10.0165 18.511 9.75589 18.6592 9.47394 18.7521C9.24424 18.8289 9.00364 18.8682 8.76144 18.8683L8.76219 18.8691ZM5.56569 10.9566C5.43239 10.9567 5.30152 10.9923 5.18657 11.0598C5.07162 11.1273 4.97674 11.2242 4.91169 11.3406L3.47619 13.9078C3.42633 13.9959 3.39493 14.0933 3.38387 14.1939C3.37282 14.2945 3.38235 14.3963 3.41188 14.4931C3.44142 14.5899 3.49034 14.6797 3.55568 14.757C3.62102 14.8344 3.7014 14.8976 3.79194 14.9428L8.42544 17.2873C8.51373 17.3319 8.60997 17.3586 8.70861 17.3659C8.80726 17.3731 8.90637 17.3609 9.00024 17.3297C9.09412 17.2985 9.18092 17.2491 9.25565 17.1843C9.33037 17.1195 9.39156 17.0406 9.43569 16.9521L11.2627 13.2748L5.85594 11.0158C5.76431 10.9772 5.66587 10.9573 5.56644 10.9573L5.56569 10.9566Z" fill="#7C7C7C"/>
<path d="M16.4377 18.8691C16.1992 18.8691 15.9592 18.8308 15.726 18.7536C15.444 18.6605 15.1833 18.5121 14.9593 18.3171C14.7352 18.1222 14.5522 17.8845 14.421 17.6181L11.8837 12.5083L18.7665 9.63134C19.276 9.41748 19.8464 9.39892 20.3688 9.5792C20.8911 9.75949 21.3286 10.126 21.5977 10.6086L23.0332 13.1758C23.3347 13.7166 23.4022 14.3398 23.2215 14.9316C23.0407 15.5233 22.6372 16.0033 22.0845 16.2823L17.451 18.6268C17.1367 18.7861 16.7893 18.8694 16.437 18.8698L16.4377 18.8691ZM13.9387 13.2741L15.7642 16.9513C15.8082 17.0401 15.8693 17.1193 15.9441 17.1842C16.0189 17.2492 16.1058 17.2987 16.1998 17.3299C16.2938 17.3611 16.3931 17.3733 16.4918 17.3659C16.5906 17.3584 16.6869 17.3315 16.7752 17.2866L21.4087 14.9421C21.5925 14.8491 21.7275 14.6893 21.7875 14.4921C21.8475 14.2948 21.8257 14.0871 21.7245 13.9071L20.289 11.3398C20.1995 11.179 20.0539 11.0568 19.8799 10.9967C19.7059 10.9366 19.5159 10.9429 19.3462 11.0143L13.9395 13.2733L13.9387 13.2741ZM6.67423 8.52059C6.30748 8.52059 6.00598 8.25209 5.93698 7.89134C5.56423 5.94359 3.52873 4.76534 2.48173 4.28084C2.31337 4.20335 2.17958 4.06638 2.10607 3.89624C2.03256 3.7261 2.02452 3.5348 2.08348 3.35909C2.11653 3.2591 2.17029 3.16719 2.24125 3.08938C2.31221 3.01156 2.39878 2.94957 2.49531 2.90747C2.59184 2.86536 2.69616 2.84407 2.80147 2.845C2.90678 2.84593 3.01071 2.86904 3.10648 2.91284C4.41223 3.51209 6.95398 5.00084 7.42123 7.65434C7.50073 8.10659 7.13323 8.51984 6.67423 8.51984V8.52059ZM18.741 8.52059C18.2812 8.52059 17.9137 8.10734 17.994 7.65509C18.4612 5.00159 21.0022 3.51284 22.308 2.91359C22.4037 2.86965 22.5076 2.84641 22.6129 2.84538C22.7182 2.84434 22.8225 2.86554 22.9191 2.90759C23.0156 2.94964 23.1022 3.01159 23.1732 3.08939C23.2442 3.16719 23.298 3.25909 23.331 3.35909C23.3899 3.5348 23.3819 3.7261 23.3084 3.89624C23.2349 4.06638 23.1011 4.20335 22.9327 4.28084C21.8865 4.76609 19.851 5.94359 19.4782 7.89134C19.4092 8.25209 19.1077 8.52059 18.741 8.52059Z" fill="#7C7C7C"/>
</svg>
