<svg width="24" height="24" viewBox="0 0 24 24" fill="none" xmlns="http://www.w3.org/2000/svg">
<g clip-path="url(#clip0_508_7815)">
<path d="M21.0828 10.8579L19.3821 12.0331L17.7836 10.5517L17.0276 8.63173L18.7283 7.45242L20.299 8.89656L21.0828 10.8579Z" fill="#F2F3F2"/>
<path d="M15.7241 16.7586V22.1379C15.7235 22.3572 15.6361 22.5673 15.481 22.7224C15.326 22.8774 15.1158 22.9649 14.8966 22.9655H0.827586C0.608298 22.9649 0.398179 22.8774 0.243118 22.7224C0.0880571 22.5673 0.000654922 22.3572 0 22.1379L0 6.82758H15.7241V16.7586Z" fill="#F2F3F2"/>
<path d="M9.93092 20.8966H2.48264C2.3729 20.8966 2.26765 20.853 2.19004 20.7754C2.11244 20.6978 2.06885 20.5925 2.06885 20.4828C2.06885 20.373 2.11244 20.2678 2.19004 20.1902C2.26765 20.1126 2.3729 20.069 2.48264 20.069H9.93092C10.0407 20.069 10.1459 20.1126 10.2235 20.1902C10.3011 20.2678 10.3447 20.373 10.3447 20.4828C10.3447 20.5925 10.3011 20.6978 10.2235 20.7754C10.1459 20.853 10.0407 20.8966 9.93092 20.8966Z" fill="#7C7C7C"/>
<path d="M23.4662 9.21105L21.0828 10.8579L18.7283 7.45243L21.1117 5.80553C21.3823 5.61872 21.716 5.54692 22.0395 5.60588C22.363 5.66484 22.6499 5.84975 22.8372 6.12001L23.7807 7.48139C23.9677 7.75267 24.0396 8.08699 23.9807 8.41118C23.9217 8.73536 23.7367 9.02297 23.4662 9.21105Z" fill="#5197AF"/>
<path d="M8.62748 18.3103L6.65782 18.7862C6.57692 18.8053 6.49215 18.7995 6.41456 18.7697C6.33697 18.7399 6.27016 18.6874 6.22283 18.6191C6.17549 18.5508 6.14983 18.4698 6.14918 18.3866C6.14854 18.3035 6.17293 18.2221 6.2192 18.1531L7.36127 16.4772L8.62748 18.3103Z" fill="#09090A"/>
<path d="M19.3821 12.0331C10.661 18.0654 11.2515 17.6636 11.2097 17.6772L8.86353 14.2841C8.91194 14.2357 8.44973 14.5605 17.0277 8.63171L19.3821 12.0331Z" fill="#5197AF"/>
<path d="M11.2096 17.6773C11.1297 17.7186 10.9199 17.7555 8.62753 18.3104L7.36133 16.4773C8.89733 14.2192 8.81622 14.3313 8.8634 14.2841L11.2096 17.6773Z" fill="#F2F3F2"/>
<path d="M11.9378 10.5517H2.48264C2.3729 10.5517 2.26765 10.5081 2.19004 10.4305C2.11244 10.3529 2.06885 10.2477 2.06885 10.1379C2.06885 10.0282 2.11244 9.92295 2.19004 9.84535C2.26765 9.76775 2.3729 9.72415 2.48264 9.72415H11.9378C12.0476 9.72415 12.1528 9.76775 12.2304 9.84535C12.308 9.92295 12.3516 10.0282 12.3516 10.1379C12.3516 10.2477 12.308 10.3529 12.2304 10.4305C12.1528 10.5081 12.0476 10.5517 11.9378 10.5517ZM8.94609 12.6207H2.48264C2.3729 12.6207 2.26765 12.5771 2.19004 12.4995C2.11244 12.4219 2.06885 12.3167 2.06885 12.2069C2.06885 12.0972 2.11244 11.9919 2.19004 11.9143C2.26765 11.8367 2.3729 11.7931 2.48264 11.7931H8.94609C9.05583 11.7931 9.16108 11.8367 9.23868 11.9143C9.31629 11.9919 9.35988 12.0972 9.35988 12.2069C9.35988 12.3167 9.31629 12.4219 9.23868 12.4995C9.16108 12.5771 9.05583 12.6207 8.94609 12.6207ZM6.85643 14.6897H2.48264C2.3729 14.6897 2.26765 14.6461 2.19004 14.5685C2.11244 14.4909 2.06885 14.3856 2.06885 14.2759C2.06885 14.1661 2.11244 14.0609 2.19004 13.9833C2.26765 13.9057 2.3729 13.8621 2.48264 13.8621H6.85643C6.96618 13.8621 7.07143 13.9057 7.14903 13.9833C7.22663 14.0609 7.27023 14.1661 7.27023 14.2759C7.27023 14.3856 7.22663 14.4909 7.14903 14.5685C7.07143 14.6461 6.96618 14.6897 6.85643 14.6897ZM5.4454 16.7586H2.48264C2.3729 16.7586 2.26765 16.715 2.19004 16.6374C2.11244 16.5598 2.06885 16.4546 2.06885 16.3448C2.06885 16.2351 2.11244 16.1298 2.19004 16.0522C2.26765 15.9746 2.3729 15.931 2.48264 15.931H5.4454C5.55514 15.931 5.66039 15.9746 5.73799 16.0522C5.8156 16.1298 5.85919 16.2351 5.85919 16.3448C5.85919 16.4546 5.8156 16.5598 5.73799 16.6374C5.66039 16.715 5.55514 16.7586 5.4454 16.7586ZM4.4854 18.8276H2.48264C2.3729 18.8276 2.26765 18.784 2.19004 18.7064C2.11244 18.6288 2.06885 18.5236 2.06885 18.4138C2.06885 18.3041 2.11244 18.1988 2.19004 18.1212C2.26765 18.0436 2.3729 18 2.48264 18H4.4854C4.59514 18 4.70039 18.0436 4.778 18.1212C4.8556 18.1988 4.89919 18.3041 4.89919 18.4138C4.89919 18.5236 4.8556 18.6288 4.778 18.7064C4.70039 18.784 4.59514 18.8276 4.4854 18.8276Z" fill="#7C7C7C"/>
<path d="M14.069 3.51727C14.5079 3.51727 14.9289 3.69166 15.2393 4.00206C15.5498 4.31247 15.7241 4.73347 15.7241 5.17245V7.6552H0V5.17245C0 4.73347 0.174384 4.31247 0.484789 4.00206C0.795194 3.69166 1.21619 3.51727 1.65517 3.51727H14.069Z" fill="#5197AF"/>
<path d="M13.6552 21.3104H12.4138C12.304 21.3104 12.1988 21.2668 12.1212 21.1892C12.0436 21.1116 12 21.0063 12 20.8966C12 20.7868 12.0436 20.6816 12.1212 20.604C12.1988 20.5264 12.304 20.4828 12.4138 20.4828H13.2414V19.6552C13.2414 19.5454 13.285 19.4402 13.3626 19.3626C13.4402 19.285 13.5454 19.2414 13.6552 19.2414C13.7649 19.2414 13.8702 19.285 13.9478 19.3626C14.0254 19.4402 14.069 19.5454 14.069 19.6552V20.8966C14.069 21.0063 14.0254 21.1116 13.9478 21.1892C13.8702 21.2668 13.7649 21.3104 13.6552 21.3104Z" fill="#7C7C7C"/>
<path d="M14.0691 3.51724C14.0691 4.90759 13.3408 6 12.4139 6C12.3041 6 12.1989 5.95641 12.1213 5.87881C12.0437 5.8012 12.0001 5.69595 12.0001 5.58621C12.0001 5.47646 12.0437 5.37121 12.1213 5.29361C12.1989 5.21601 12.3041 5.17242 12.4139 5.17242C12.8029 5.17242 13.2415 4.46483 13.2415 3.51724C13.2415 2.56966 12.8029 1.86207 12.4139 1.86207C12.0249 1.86207 11.5863 2.56966 11.5863 3.51724H10.7587C10.7587 2.1269 11.487 1.03448 12.4139 1.03448C13.3408 1.03448 14.0691 2.1269 14.0691 3.51724ZM9.51734 3.51724C9.51734 4.90759 8.78907 6 7.86217 6C7.75243 6 7.64718 5.95641 7.56957 5.87881C7.49197 5.8012 7.44838 5.69595 7.44838 5.58621C7.44838 5.47646 7.49197 5.37121 7.56957 5.29361C7.64718 5.21601 7.75243 5.17242 7.86217 5.17242C8.25114 5.17242 8.68976 4.46483 8.68976 3.51724C8.68976 2.56966 8.25114 1.86207 7.86217 1.86207C7.4732 1.86207 7.03458 2.56966 7.03458 3.51724H6.207C6.207 2.1269 6.93527 1.03448 7.86217 1.03448C8.78907 1.03448 9.51734 2.1269 9.51734 3.51724ZM4.96562 3.51724C4.96562 4.90759 4.23734 6 3.31045 6C3.2007 6 3.09545 5.95641 3.01785 5.87881C2.94025 5.8012 2.89665 5.69595 2.89665 5.58621C2.89665 5.47646 2.94025 5.37121 3.01785 5.29361C3.09545 5.21601 3.2007 5.17242 3.31045 5.17242C3.69941 5.17242 4.13803 4.46483 4.13803 3.51724C4.13803 2.56966 3.69941 1.86207 3.31045 1.86207C2.92148 1.86207 2.48286 2.56966 2.48286 3.51724H1.65527C1.65527 2.1269 2.38355 1.03448 3.31045 1.03448C4.23734 1.03448 4.96562 2.1269 4.96562 3.51724Z" fill="#7C7C7C"/>
</g>
<defs>
<clipPath id="clip0_508_7815">
<rect width="24" height="24" fill="white"/>
</clipPath>
</defs>
</svg>
