<svg width="24" height="24" viewBox="0 0 24 24" fill="none" xmlns="http://www.w3.org/2000/svg">
<g clip-path="url(#clip0_370_6521)">
<path d="M20.7651 7.98199L20.7871 8.17199L20.7941 8.36599V15.634C20.794 16.0426 20.6937 16.4449 20.5021 16.8058C20.3106 17.1666 20.0334 17.475 19.6951 17.704L19.5451 17.799L13.2501 21.433L13.1261 21.5L13.0001 21.56V12.57L20.7651 7.98199ZM3.23505 7.98199L11.0001 12.571V21.559C10.9144 21.5217 10.831 21.4796 10.7501 21.433L4.45605 17.799C4.07602 17.5796 3.76043 17.264 3.54101 16.884C3.32159 16.5039 3.20607 16.0728 3.20605 15.634V8.36599C3.20605 8.23599 3.21605 8.10799 3.23605 7.98199H3.23505ZM13.2501 2.56699L19.5441 6.20099C19.5941 6.23099 19.6441 6.26099 19.6921 6.29299L12.0001 10.838L4.30805 6.29299C4.35628 6.26058 4.40565 6.22989 4.45605 6.20099L10.7501 2.56699C11.1301 2.34757 11.5612 2.23206 12.0001 2.23206C12.4389 2.23206 12.87 2.34757 13.2501 2.56699Z" fill="#5197AF"/>
</g>
<defs>
<clipPath id="clip0_370_6521">
<rect width="24" height="24" fill="white"/>
</clipPath>
</defs>
</svg>
