<svg width="25" height="25" viewBox="0 0 25 25" fill="none" xmlns="http://www.w3.org/2000/svg">
<g clip-path="url(#clip0_892_1077)">
<path d="M12.6603 12.061C14.2485 12.061 15.6236 11.4914 16.7475 10.3674C17.8711 9.24375 18.4409 7.86881 18.4409 6.28041C18.4409 4.69247 17.8713 3.3174 16.7473 2.19329C15.6234 1.06975 14.2483 0.500122 12.6603 0.500122C11.0718 0.500122 9.69685 1.06975 8.57316 2.19348C7.44948 3.31721 6.87962 4.69233 6.87962 6.28041C6.87962 7.86881 7.44943 9.24393 8.57321 10.3677C9.69727 11.4912 11.0724 12.061 12.6602 12.061H12.6603ZM9.5678 3.18793C10.43 2.32567 11.4415 1.90656 12.6603 1.90656C13.8788 1.90656 14.8905 2.32567 15.7529 3.18793C16.6152 4.05033 17.0345 5.06199 17.0345 6.28036C17.0345 7.49911 16.6152 8.51062 15.7529 9.37303C14.8905 10.2355 13.8788 10.6546 12.6603 10.6546C11.4419 10.6546 10.4304 10.2353 9.5678 9.37303C8.70535 8.51081 8.28605 7.49916 8.28605 6.28041C8.28605 5.06199 8.70535 4.05033 9.5678 3.18793ZM22.7748 18.9549C22.7424 18.4873 22.6768 17.9771 22.5803 17.4385C22.4829 16.8957 22.3575 16.3827 22.2073 15.9137C22.0521 15.429 21.8413 14.9504 21.5804 14.4917C21.3099 14.0157 20.9921 13.6011 20.6354 13.26C20.2624 12.9031 19.8057 12.6162 19.2777 12.4069C18.7514 12.1987 18.1682 12.0933 17.5444 12.0933C17.2994 12.0933 17.0625 12.1938 16.6049 12.4917C16.2796 12.7035 15.9534 12.9138 15.6262 13.1226C15.3118 13.323 14.8859 13.5107 14.3598 13.6806C13.8466 13.8467 13.3255 13.9309 12.8109 13.9309C12.2968 13.9309 11.7757 13.8467 11.262 13.6806C10.7366 13.5108 10.3105 13.3232 9.99661 13.1228C9.63239 12.8901 9.30286 12.6777 9.01702 12.4915C8.5598 12.1936 8.32285 12.093 8.07788 12.093C7.45384 12.093 6.87085 12.1987 6.34478 12.4071C5.81706 12.616 5.36022 12.9029 4.98686 13.2602C4.63019 13.6015 4.31233 14.0158 4.04205 14.4917C3.78152 14.9504 3.57058 15.4288 3.41528 15.9139C3.26528 16.3828 3.13989 16.8957 3.04249 17.4385C2.94578 17.9764 2.88044 18.4867 2.848 18.9555C2.81613 19.4138 2.80005 19.8908 2.80005 20.3727C2.80005 21.6255 3.1983 22.6397 3.98364 23.3877C4.75928 24.1259 5.78542 24.5001 7.0336 24.5001H18.5898C19.8376 24.5001 20.8637 24.1258 21.6395 23.3877C22.4251 22.6403 22.8233 21.6257 22.8233 20.3725C22.8231 19.8889 22.8069 19.4119 22.7748 18.9549ZM20.6698 22.3687C20.1573 22.8565 19.4769 23.0936 18.5895 23.0936H7.03365C6.14617 23.0936 5.46573 22.8565 4.95339 22.369C4.4508 21.8905 4.20653 21.2373 4.20653 20.3727C4.20653 19.923 4.22134 19.479 4.25106 19.0527C4.27994 18.6345 4.33909 18.1751 4.42684 17.6869C4.51342 17.2048 4.62362 16.7524 4.75473 16.3428C4.88054 15.95 5.05211 15.5611 5.26487 15.1865C5.46793 14.8294 5.70156 14.523 5.95937 14.2762C6.20054 14.0453 6.50453 13.8564 6.86265 13.7147C7.19387 13.5835 7.56615 13.5118 7.97026 13.5009C8.01948 13.5272 8.10723 13.5771 8.2493 13.6698C8.53843 13.8582 8.87166 14.0732 9.2401 14.3084C9.65541 14.5732 10.1904 14.8123 10.8296 15.0187C11.4831 15.23 12.1496 15.3373 12.8112 15.3373C13.4728 15.3373 14.1394 15.23 14.7926 15.0189C15.4323 14.8122 15.9672 14.5732 16.383 14.3081C16.7601 14.0671 17.084 13.8584 17.373 13.6698C17.5152 13.5773 17.6029 13.5271 17.6521 13.501C18.0564 13.5118 18.4287 13.5835 18.7601 13.7146C19.118 13.8564 19.422 14.0455 19.6632 14.2762C19.921 14.5228 20.1546 14.8292 20.3577 15.1866C20.5706 15.5611 20.7424 15.9502 20.868 16.3426C20.9993 16.7527 21.1097 17.205 21.1961 17.6867C21.2836 18.1758 21.343 18.6354 21.3719 19.0529V19.0533C21.4017 19.4778 21.4167 19.9217 21.4169 20.3727C21.4167 21.2375 21.1725 21.8905 20.6699 22.3687H20.6698Z" fill="#7C7C7C"/>
</g>
<defs>
<clipPath id="clip0_892_1077">
<rect width="24" height="24" fill="white" transform="translate(0.800049 0.500122)"/>
</clipPath>
</defs>
</svg>
