<svg width="24" height="24" viewBox="0 0 24 24" fill="none" xmlns="http://www.w3.org/2000/svg">
<g clip-path="url(#clip0_130_3580)">
<path d="M14.1874 22.4454H5.56124C4.12064 22.4454 2.94989 21.2738 2.94989 19.8341V4.16598C2.94989 2.72625 4.12064 1.55462 5.56124 1.55462H17.7476C19.1873 1.55462 20.3589 2.72625 20.3589 4.16598V16.6134C20.3589 16.8458 20.4529 17.0547 20.6009 17.2106C20.6815 17.2966 20.7788 17.3652 20.8869 17.4122C20.9949 17.4592 21.1115 17.4836 21.2294 17.4839C21.4602 17.4839 21.6816 17.3922 21.8449 17.2289C22.0081 17.0657 22.0998 16.8443 22.0998 16.6134V4.16598C22.0998 1.76614 20.1465 -0.186279 17.7476 -0.186279H5.56124C3.16141 -0.186279 1.20898 1.76614 1.20898 4.16598V19.8341C1.20898 22.2339 3.16141 24.1864 5.56124 24.1864H14.1874C14.4183 24.1864 14.6397 24.0946 14.8029 23.9314C14.9662 23.7682 15.0579 23.5468 15.0579 23.3159C15.0569 23.0926 14.9696 22.8783 14.8141 22.7179C14.7337 22.6322 14.6366 22.5639 14.5289 22.517C14.4211 22.4702 14.3049 22.4458 14.1874 22.4454Z" fill="#09090A"/>
<path d="M16.8771 11.1296H6.43173C6.20087 11.1296 5.97947 11.2213 5.81623 11.3845C5.65299 11.5478 5.56128 11.7692 5.56128 12.0001C5.56128 12.2309 5.65299 12.4523 5.81623 12.6156C5.97947 12.7788 6.20087 12.8705 6.43173 12.8705H16.8771C17.108 12.8705 17.3294 12.7788 17.4926 12.6156C17.6559 12.4523 17.7476 12.2309 17.7476 12.0001C17.7476 11.7692 17.6559 11.5478 17.4926 11.3845C17.3294 11.2213 17.108 11.1296 16.8771 11.1296ZM16.8771 6.77734H6.43173C6.20087 6.77734 5.97947 6.86905 5.81623 7.03229C5.65299 7.19553 5.56128 7.41694 5.56128 7.64779C5.56128 7.87865 5.65299 8.10006 5.81623 8.2633C5.97947 8.42654 6.20087 8.51825 6.43173 8.51825H16.8771C17.108 8.51825 17.3294 8.42654 17.4926 8.2633C17.6559 8.10006 17.7476 7.87865 17.7476 7.64779C17.7476 7.41694 17.6559 7.19553 17.4926 7.03229C17.3294 6.86905 17.108 6.77734 16.8771 6.77734ZM16.8771 15.4819H6.43173C6.20087 15.4819 5.97947 15.5736 5.81623 15.7368C5.65299 15.9 5.56128 16.1214 5.56128 16.3523C5.56128 16.5832 5.65299 16.8046 5.81623 16.9678C5.97947 17.1311 6.20087 17.2228 6.43173 17.2228H16.8771C17.108 17.2228 17.3294 17.1311 17.4926 16.9678C17.6559 16.8046 17.7476 16.5832 17.7476 16.3523C17.7476 16.1214 17.6559 15.9 17.4926 15.7368C17.3294 15.5736 17.108 15.4819 16.8771 15.4819ZM16.4411 20.7463C16.3557 20.8325 16.2895 20.9358 16.2469 21.0493C16.2043 21.1629 16.1862 21.2842 16.1938 21.4053C16.202 21.6201 16.2901 21.8241 16.4411 21.9772L18.2046 23.7398C18.2852 23.8209 18.3811 23.8853 18.4867 23.9292C18.5924 23.9732 18.7056 23.9958 18.82 23.9958C18.9344 23.9958 19.0476 23.9732 19.1532 23.9292C19.2589 23.8853 19.3548 23.8209 19.4354 23.7398L22.5342 20.641C22.6173 20.5607 22.6837 20.4647 22.7293 20.3585C22.7749 20.2523 22.7989 20.1381 22.7999 20.0225C22.8009 19.9069 22.7789 19.7923 22.7351 19.6853C22.6914 19.5783 22.6267 19.4811 22.545 19.3994C22.4633 19.3177 22.3661 19.2531 22.2591 19.2093C22.1521 19.1655 22.0375 19.1435 21.9219 19.1445C21.8064 19.1455 21.6921 19.1695 21.5859 19.2151C21.4797 19.2608 21.3837 19.3271 21.3034 19.4102L18.82 21.8936L17.671 20.7463C17.527 20.6065 17.3384 20.5218 17.1383 20.507C17.0116 20.4924 16.8832 20.5063 16.7626 20.5477C16.6419 20.5891 16.5321 20.657 16.4411 20.7463Z" fill="#09090A"/>
</g>
<defs>
<clipPath id="clip0_130_3580">
<rect width="24" height="24" fill="white"/>
</clipPath>
</defs>
</svg>
