<svg width="22" height="21" viewBox="0 0 22 21" fill="none" xmlns="http://www.w3.org/2000/svg">
<path fill-rule="evenodd" clip-rule="evenodd" d="M19.674 9.50012H16.98C15.556 9.50012 14.499 10.5591 14.499 11.7501C14.499 12.9411 15.556 14.0001 16.979 14.0001H19.697C19.903 13.9871 19.992 13.8481 19.999 13.7641V9.73612C19.992 9.65212 19.903 9.51312 19.697 9.50112H19.673L19.674 9.50012ZM19.6 8.00012C19.666 8.00012 19.73 8.00012 19.79 8.00412C20.66 8.05712 21.431 8.71412 21.496 9.63212C21.5 9.69212 21.5 9.75712 21.5 9.81712V13.6831C21.5 13.7431 21.5 13.8081 21.496 13.8681C21.431 14.7861 20.66 15.4431 19.789 15.4971C19.73 15.5001 19.666 15.5001 19.599 15.5001H16.981C14.836 15.5001 13 13.8721 13 11.7501C13 9.62812 14.836 8.00012 16.98 8.00012H19.6Z" fill="#5197AF"/>
<path d="M17.75 11.7501C17.75 12.0153 17.6446 12.2697 17.4571 12.4572C17.2696 12.6448 17.0152 12.7501 16.75 12.7501C16.4848 12.7501 16.2304 12.6448 16.0429 12.4572C15.8554 12.2697 15.75 12.0153 15.75 11.7501C15.75 11.4849 15.8554 11.2306 16.0429 11.043C16.2304 10.8555 16.4848 10.7501 16.75 10.7501C17.0152 10.7501 17.2696 10.8555 17.4571 11.043C17.6446 11.2306 17.75 11.4849 17.75 11.7501Z" fill="#5197AF"/>
<path fill-rule="evenodd" clip-rule="evenodd" d="M19.6 8.00012C19.8869 7.98927 20.1725 8.04399 20.435 8.16012C20.328 6.55412 20.033 5.31612 19.109 4.39112C18.36 3.64312 17.411 3.31112 16.239 3.15312L16.197 3.14812C16.1865 3.14018 16.1759 3.13251 16.165 3.12512L12.429 0.648119C11.781 0.225195 11.0238 0 10.25 0C9.47616 0 8.71905 0.225195 8.071 0.648119L4.336 3.12512C4.3248 3.1325 4.3138 3.14017 4.303 3.14812L4.261 3.15312C3.089 3.31112 2.14 3.64312 1.391 4.39112C0.643 5.14012 0.311 6.08912 0.153 7.26112C0 8.40112 0 9.85612 0 11.6941V11.8061C0 13.6441 0 15.1001 0.153 16.2391C0.311 17.4111 0.643 18.3601 1.391 19.1091C2.14 19.8571 3.089 20.1891 4.261 20.3471C5.401 20.5001 6.856 20.5001 8.694 20.5001H11.806C13.644 20.5001 15.1 20.5001 16.239 20.3471C17.411 20.1891 18.36 19.8571 19.109 19.1091C20.033 18.1841 20.328 16.9461 20.435 15.3391C20.233 15.4291 20.015 15.4831 19.789 15.4971C19.73 15.5001 19.666 15.5001 19.599 15.5001H18.918C18.804 16.8411 18.547 17.5501 18.048 18.0481C17.625 18.4711 17.045 18.7251 16.039 18.8601C15.012 18.9981 13.657 19.0001 11.75 19.0001H8.75C6.843 19.0001 5.489 18.9981 4.46 18.8601C3.455 18.7251 2.875 18.4711 2.452 18.0481C2.029 17.6251 1.775 17.0451 1.64 16.0391C1.502 15.0121 1.5 13.6571 1.5 11.7501C1.5 9.84312 1.502 8.48912 1.64 7.46012C1.775 6.45512 2.029 5.87512 2.452 5.45212C2.875 5.02912 3.455 4.77512 4.461 4.64012C5.489 4.50212 6.843 4.50012 8.75 4.50012H11.75C13.657 4.50012 15.012 4.50212 16.04 4.64012C17.045 4.77512 17.625 5.02912 18.048 5.45212C18.547 5.95012 18.804 6.65912 18.918 8.00012H19.6ZM8.694 3.00012H11.806C12.323 3.00012 12.809 3.00012 13.266 3.00312L11.6 1.89812C10.8 1.36812 9.7 1.36812 8.9 1.89812L7.233 3.00312C7.691 3.00012 8.177 3.00012 8.693 3.00012H8.694Z" fill="#5197AF"/>
<path d="M4.75 7.00012C4.55109 7.00012 4.36032 7.07914 4.21967 7.21979C4.07902 7.36044 4 7.55121 4 7.75012C4 7.94903 4.07902 8.1398 4.21967 8.28045C4.36032 8.4211 4.55109 8.50012 4.75 8.50012H8.75C8.94891 8.50012 9.13968 8.4211 9.28033 8.28045C9.42098 8.1398 9.5 7.94903 9.5 7.75012C9.5 7.55121 9.42098 7.36044 9.28033 7.21979C9.13968 7.07914 8.94891 7.00012 8.75 7.00012H4.75Z" fill="#5197AF"/>
<path d="M17.75 11.7501C17.75 12.0153 17.6446 12.2697 17.4571 12.4572C17.2696 12.6448 17.0152 12.7501 16.75 12.7501C16.4848 12.7501 16.2304 12.6448 16.0429 12.4572C15.8554 12.2697 15.75 12.0153 15.75 11.7501C15.75 11.4849 15.8554 11.2306 16.0429 11.043C16.2304 10.8555 16.4848 10.7501 16.75 10.7501C17.0152 10.7501 17.2696 10.8555 17.4571 11.043C17.6446 11.2306 17.75 11.4849 17.75 11.7501Z" fill="#5197AF"/>
</svg>
